<?xml version="1.0" encoding="utf-8"?><!DOCTYPE svg PUBLIC "-//W3C//DTD SVG 1.1//EN" "http://www.w3.org/Graphics/SVG/1.1/DTD/svg11.dtd"><svg version="1.1" id="Contours" xmlns="http://www.w3.org/2000/svg" xmlns:xlink="http://www.w3.org/1999/xlink" x="0px" y="0px" width="1595.444946px" height="1595.444946px" viewBox="0.000001 -0.000000 1595.444946 2024.005737" enable-background="new 0 0 1595.444946 1595.444946" xml:space="preserve" stroke="black" fill="none" stroke-linecap='round' stroke-linejoin='round'><path class="selected"  fill="#000000" opacity="1.000000" stroke="none" 
 	d="
M210.146773 2024.005760 C212.724959 2015.677512 215.695418 2007.394187 218.334975 1999.006492 C220.336593 1992.646018 221.860702 1986.136619 223.697432 1979.722190 C226.383468 1970.341697 228.306441 1960.622947 232.108779 1951.711570 C237.071608 1940.080467 239.018172 1927.640647 243.377578 1915.882469 C246.705764 1906.905418 249.329085 1897.642845 251.822371 1888.387840 C253.854751 1880.843650 255.055648 1873.079002 256.947707 1865.492454 C258.709426 1858.428367 261.050368 1851.509666 262.857284 1844.455589 C265.024795 1835.993919 266.786849 1827.428855 268.926223 1818.959373 C271.284347 1809.624046 274.034987 1800.386253 276.306197 1791.031150 C278.080794 1783.721458 279.220839 1776.259178 280.939956 1768.934471 C282.893416 1760.610862 285.227828 1752.377097 287.278701 1744.075218 C287.736831 1742.220847 287.574874 1740.221458 287.918288 1738.328880 C289.740035 1728.289573 292.259810 1718.354392 294.443343 1708.431541 C296.132216 1700.756736 296.192244 1693.032005 297.815597 1685.451682 C300.450118 1673.149680 302.579970 1660.739280 304.869063 1648.364646 C305.077681 1647.236595 304.878402 1646.036155 304.899703 1644.869895 C305.040267 1637.171897 304.995650 1629.635764 307.596053 1622.010887 C309.472396 1616.508567 308.699691 1610.060325 308.862533 1604.027244 C309.069686 1596.354270 308.287826 1588.558250 312.724471 1581.604392 C313.106612 1581.005393 312.886214 1580.001853 312.892257 1579.185935 C313.230636 1533.825462 313.645675 1488.465476 313.839522 1443.104392 C313.888534 1431.630149 313.150741 1420.154441 312.924910 1408.676414 C312.776229 1401.122337 313.375411 1393.525535 312.786056 1386.014793 C311.872115 1374.367942 310.219039 1362.779441 308.914107 1351.162254 C308.784713 1350.010154 308.896773 1348.830955 308.896773 1347.664329 C308.896773 1336.831321 308.988143 1325.997337 308.862105 1315.165794 C308.787887 1308.793723 309.837874 1302.339744 306.065413 1296.303367 C304.685653 1294.095481 305.053023 1290.692771 304.929122 1287.821922 C304.512862 1278.170310 305.531905 1268.577537 302.132369 1258.983421 C299.022048 1250.205589 298.607924 1240.485252 295.634383 1231.641380 C293.803512 1226.195945 293.638564 1220.070701 289.127730 1215.237693 C286.544265 1212.469871 286.383834 1207.499412 284.950484 1203.587303 C281.240218 1193.460838 277.628463 1183.291038 273.604812 1173.288352 C269.123366 1162.147849 264.481582 1151.056785 259.443862 1140.159446 C254.717055 1129.934837 249.339522 1120.012229 244.330275 1109.916160 C241.109145 1103.424095 238.285323 1096.723167 234.831588 1090.361106 C230.826858 1082.984153 226.294906 1075.894798 222.050460 1068.646262 C216.948043 1059.932762 212.113234 1051.054954 206.777938 1042.487815 C202.126723 1035.019309 196.781600 1027.985618 192.028182 1020.577049 C184.525557 1008.883201 177.270064 997.030967 169.894576 985.255393 C162.185439 972.946922 154.328383 960.728965 146.775771 948.325401 C139.417129 936.240379 132.388961 923.954551 125.160476 911.789756 C122.054580 906.562766 118.730483 901.464988 115.646224 896.225730 C110.998275 888.330406 106.314650 880.448997 101.933516 872.405174 C95.127700 859.909568 88.274154 847.425254 81.975783 834.671958 C75.290908 821.136131 69.136336 807.334373 62.928145 793.568504 C58.433913 783.603050 54.049605 773.579856 49.942885 763.449973 C44.909224 751.033714 40.056487 738.538352 35.420440 725.968345 C30.725188 713.237876 26.260741 700.417991 21.941909 687.554405 C19.038131 678.905540 16.687285 670.072166 13.855330 661.397727 C11.799773 655.101341 9.081160 649.013389 7.192595 642.673362 C5.939147 638.465415 6.343673 633.693565 4.751067 629.670982 C1.211730 620.731407 2.202636 611.532493 1.815230 602.360313 C1.607863 597.450584 0.090117 592.583762 0.011748 587.683982 C-0.096055 580.946555 0.563079 574.194175 0.964644 567.452415 C1.205321 563.412071 1.321715 559.337486 1.969817 555.355735 C2.617827 551.374656 4.117507 547.533836 4.791045 543.554954 C6.839934 531.451194 15.686599 523.157859 22.273070 513.897361 C26.638793 507.759178 34.177199 503.406700 41.054610 499.641746 C50.209212 494.630180 60.325911 491.399375 69.608931 486.591819 C77.432235 482.540275 85.770461 480.507469 93.981612 477.755973 C103.143722 474.685813 112.282821 471.949424 121.718093 469.859031 C128.914992 468.264488 135.714339 464.937583 142.875747 463.105216 C152.276565 460.699882 161.903060 459.190635 171.353103 456.959770 C183.622207 454.063407 195.827041 450.937278 208.459639 449.960471 C210.615951 449.793754 212.717605 448.989219 214.859572 448.553642 C219.169417 447.677268 223.509810 446.941764 227.799300 445.977714 C231.282058 445.194969 234.695540 444.108665 238.165389 443.262260 C240.301375 442.741203 242.483962 442.409141 244.648452 442.007499 C250.066421 441.002250 255.471541 439.916923 260.909224 439.032218 C265.779128 438.239890 270.688735 437.694358 275.575301 437.001029 C284.858352 435.683952 294.136611 434.333457 303.419845 433.017906 C304.073348 432.925254 304.751815 433.020805 305.418014 433.003593 C331.141097 432.339469 356.987594 429.770622 382.559432 431.431846 C425.659041 434.231712 468.705184 431.904960 511.754439 433.000022 C526.281661 433.369560 541.087569 432.006309 555.278792 434.365836 C581.729415 438.763694 608.170699 436.273704 634.597274 436.809165 C642.612838 436.971580 650.723800 435.055015 658.701827 433.601402 C664.965133 432.460227 671.172469 430.829429 677.261580 428.952049 C690.856612 424.760368 698.462569 415.477897 703.279098 401.924644 C707.591231 389.790611 704.521407 377.920036 705.894393 366.032371 C706.574508 360.143607 707.096114 354.232841 707.934737 348.367118 C708.760665 342.589988 709.787459 336.835319 710.932662 331.112144 C711.787703 326.838767 713.353438 322.682212 713.927535 318.383476 C715.072494 309.810325 719.106917 302.063773 720.149154 293.364494 C721.136947 285.119529 724.296859 277.145072 726.358016 269.015251 C728.121077 262.060935 729.420272 254.980186 731.398665 248.091483 C733.699080 240.081764 736.761397 232.289909 739.033370 224.273216 C740.989669 217.370048 742.062850 210.218696 743.961898 203.296562 C745.963729 196.000007 748.556380 188.867317 750.718245 181.611564 C751.216109 179.940345 750.812911 178.019767 751.161727 176.281669 C752.671798 168.757774 753.084395 160.690727 756.236434 153.908943 C759.468978 146.953788 758.319808 139.136649 762.535201 132.445777 C764.708114 128.996971 763.995345 123.812843 764.935225 119.488609 C767.489669 107.735877 770.206588 96.018165 772.904586 84.297050 C774.864364 75.783187 776.877608 67.281471 778.901839 58.782646 C781.213363 49.077636 783.175033 39.265071 786.042647 29.725860 C787.755782 24.027408 788.678328 17.927715 792.812301 13.011115 C795.876998 9.366269 798.903853 6.514280 804.043563 6.985557 C810.413985 7.569675 816.491622 6.805698 821.745528 2.666108 C829.940597 -3.791028 837.599776 2.733848 841.321090 8.972198 C847.537154 19.392822 851.948409 30.572250 854.907271 42.340236 C857.523848 52.747856 860.261519 63.125045 862.888106 73.530212 C865.593917 84.248702 868.087203 95.022987 870.945235 105.700179 C872.984420 113.318794 875.655806 120.767967 877.702681 128.384803 C879.364913 134.570609 880.418502 140.917182 881.918868 147.149925 C884.506026 157.897453 887.821456 168.509193 889.709762 179.372871 C891.220382 188.063270 895.861007 196.001823 895.108931 205.285545 C894.813521 208.932929 897.183272 212.724494 897.828536 216.536826 C898.761519 222.048774 899.059981 227.666374 899.938765 233.189628 C901.101729 240.497535 901.854049 247.984306 904.086837 254.977989 C906.551681 262.699577 907.058394 270.390220 906.924239 278.295677 C906.908492 279.215141 907.085128 280.230155 907.483199 281.050193 C911.748458 289.837455 911.421798 299.302451 912.020797 308.715202 C912.534591 316.792472 914.012374 324.818321 915.260299 332.836387 C916.693160 342.044303 918.195113 351.246787 919.952926 360.396751 C920.978805 365.736656 922.116378 371.134239 923.991744 376.215049 C927.668868 386.177024 931.696456 396.023338 935.955977 405.752494 C939.830367 414.602317 945.570357 421.907951 954.735885 426.032981 C962.746749 429.638358 970.655684 433.470908 978.599898 437.223747 C979.439864 437.620536 980.544478 437.957694 980.966720 438.659232 C984.411910 444.384910 989.580123 447.200950 996.043380 448.040305 C996.605758 448.113334 997.238814 448.563316 997.613204 449.022331 C1002.125777 454.556083 1007.820479 453.636802 1014.163253 453.290275 C1022.824508 452.817039 1031.676681 453.813590 1040.295211 455.155082 C1048.739791 456.469505 1056.994307 459.005729 1065.332198 461.005760 C1073.670089 463.005760 1082.048873 464.852012 1090.334395 467.049522 C1098.416182 469.193015 1106.419234 471.641288 1114.427047 474.054588 C1123.607100 476.821220 1132.769576 479.648612 1141.911056 482.539726 C1149.567550 484.961112 1157.192061 487.484123 1164.814010 490.012779 C1174.775680 493.317649 1184.762130 496.554740 1194.661056 500.039634 C1204.106978 503.365012 1213.382491 507.182578 1222.868819 510.380882 C1229.475020 512.608177 1236.328292 514.093833 1243.039596 516.020713 C1252.118575 518.627220 1261.233199 521.137901 1270.205855 524.076438 C1276.194381 526.037620 1281.879073 528.918357 1287.850997 530.940574 C1294.593184 533.223533 1301.511519 534.983116 1308.341109 537.011375 C1317.243087 539.655113 1326.195846 542.148460 1335.011886 545.054893 C1345.554244 548.530479 1355.935836 552.492332 1366.464766 556.010764 C1372.192916 557.924888 1378.256392 558.909995 1383.862960 561.097679 C1395.908370 565.797874 1407.735030 571.056297 1419.694869 575.980064 C1424.251388 577.855857 1429.054732 579.164695 1433.521895 581.218589 C1441.649947 584.955711 1449.587081 589.105552 1457.648604 592.990135 C1464.035201 596.067527 1470.676681 598.664085 1476.874556 602.074790 C1491.013961 609.855918 1505.485030 617.219871 1518.790572 626.269004 C1528.410567 632.811607 1537.191817 641.075523 1544.872359 649.860923 C1554.986251 661.430015 1564.358931 673.805320 1572.729537 686.691917 C1579.932662 697.781150 1587.216964 709.070640 1590.978805 722.091270 C1591.993453 725.602805 1595.361861 728.874412 1595.239547 732.166587 C1595.074264 736.613975 1596.739791 741.823692 1592.725020 745.751365 C1591.876998 746.581016 1591.203414 747.821739 1590.947188 748.982871 C1589.830245 754.042686 1588.798140 759.126121 1587.925826 764.233543 C1587.122970 768.933982 1586.896895 773.753379 1585.822188 778.382346 C1583.996993 786.243430 1581.800094 794.023216 1579.584151 801.787193 C1576.780074 811.612449 1574.074019 821.480125 1570.802657 831.152671 C1568.539473 837.844444 1565.283248 844.193870 1562.664351 850.773338 C1558.563155 861.075706 1554.736861 871.488120 1550.582442 881.768455 C1547.467696 889.476096 1544.038497 897.057334 1540.715499 904.680015 C1537.084151 913.009361 1533.645064 921.433189 1529.701095 929.612815 C1525.005416 939.351341 1519.791060 948.838279 1514.932296 958.500022 C1510.010787 968.286460 1505.377608 978.219077 1500.381637 987.966453 C1495.371993 997.740440 1489.966964 1007.311363 1484.924605 1017.069236 C1479.468062 1027.629295 1474.392013 1038.387718 1468.849166 1048.900901 C1463.789962 1058.497093 1458.251021 1067.839134 1453.063033 1077.368797 C1446.034102 1090.280296 1439.352950 1103.385398 1432.131148 1116.186546 C1423.046431 1132.289817 1413.663131 1148.227683 1404.227462 1164.129417 C1395.642623 1178.597068 1387.007735 1193.042137 1378.040938 1207.274314 C1368.855025 1221.854148 1359.722091 1236.510032 1349.681685 1250.497703 C1338.704390 1265.790428 1326.896163 1280.501975 1315.100997 1295.186668 C1307.187301 1305.038841 1298.300460 1314.119529 1290.560103 1324.096946 C1286.228194 1329.680930 1283.640304 1336.584129 1279.713424 1342.527244 C1276.811690 1346.918846 1272.694381 1350.499290 1269.714034 1354.849021 C1267.021895 1358.778098 1265.152022 1363.268333 1262.893477 1367.497215 C1259.230514 1374.355735 1260.457198 1382.228050 1258.542037 1389.244407 C1256.140914 1398.041526 1256.521285 1406.939597 1254.976607 1415.697532 C1253.291915 1425.249656 1252.249556 1434.914451 1250.868697 1444.521629 C1250.718062 1445.569602 1250.143722 1446.550926 1249.829146 1447.582420 C1248.835372 1450.839500 1247.749190 1454.075218 1246.931075 1457.376853 C1246.101241 1460.725364 1245.699752 1464.181541 1244.843306 1467.521995 C1242.605880 1476.247581 1240.385421 1484.984031 1237.839400 1493.622093 C1236.141402 1499.382591 1233.876388 1504.974632 1231.902389 1510.655052 C1229.876754 1516.484153 1227.883468 1522.324607 1225.900680 1528.168479 C1224.214522 1533.137962 1222.638717 1538.146140 1220.881026 1543.089866 C1217.266890 1553.256126 1213.605147 1563.405906 1209.873824 1573.529441 C1208.596847 1576.993919 1207.064132 1580.364402 1205.629439 1583.769920 C1201.982711 1592.425804 1198.223189 1601.036033 1194.710372 1609.745750 C1192.578658 1615.031394 1190.985518 1620.534324 1188.853072 1625.819724 C1186.491622 1631.672630 1183.696090 1637.349143 1181.259810 1643.173484 C1177.397872 1652.406516 1173.704879 1661.709983 1169.889571 1670.962791 C1165.252852 1682.208274 1160.700362 1693.491599 1155.856612 1704.647849 C1151.378219 1714.962913 1146.484176 1725.096702 1141.919356 1735.375144 C1137.481978 1745.366844 1133.297408 1755.470970 1128.873702 1765.468894 C1125.818648 1772.373313 1122.518111 1779.168723 1119.376265 1786.035179 C1113.863448 1798.083640 1108.470260 1810.187400 1102.875289 1822.197410 C1096.300216 1836.311424 1089.721724 1850.428123 1082.841964 1864.394431 C1078.127974 1873.963889 1072.767257 1883.212791 1067.941573 1892.729759 C1064.598189 1899.323264 1061.842208 1906.213889 1058.513228 1912.815086 C1055.445479 1918.898338 1051.793990 1924.686546 1048.706954 1930.761009 C1044.935958 1938.181541 1041.595015 1945.819969 1037.864058 1953.261985 C1034.537520 1959.897361 1030.902999 1966.377586 1027.457686 1972.954124 C1018.921065 1989.248802 1010.409835 2005.556785 1001.924972 2021.878562 C1001.700973 2022.309348 1001.896773 2022.958396 1001.896773 2023.755760 C738.063460 2024.005760 474.230086 2024.005760 210.146773 2024.005760 M1330.896773 855.505821 C1335.033858 851.035484 1339.411788 846.761375 1343.250411 842.048118 C1348.778121 835.261375 1354.150802 828.319908 1359.139937 821.132346 C1362.944869 815.650596 1366.235518 809.778526 1369.285201 803.838828 C1369.783492 802.868369 1367.718795 799.175987 1367.057296 799.234031 C1360.593429 799.801292 1356.949630 795.539146 1352.307906 792.197959 C1336.875533 781.089561 1321.032393 770.540122 1305.168136 760.046348 C1289.767989 749.859641 1274.147262 740.006431 1258.624068 730.005576 C1248.099532 723.225242 1237.574630 716.445579 1227.053023 709.660850 C1215.346480 702.112022 1203.740645 694.401145 1191.909102 687.053733 C1181.872725 680.821067 1171.603072 674.961387 1161.389693 669.017173 C1149.847945 662.299827 1138.405562 655.388755 1126.636764 649.091209 C1116.309249 643.564842 1105.710494 638.500266 1095.012862 633.721580 C1081.941451 627.882713 1068.655440 622.522056 1055.431930 617.027488 C1051.877364 615.550620 1047.751876 614.996848 1044.700606 612.859947 C1039.409591 609.154563 1033.220748 608.280662 1027.487472 606.034873 C1022.035811 603.899436 1016.361861 602.295249 1011.015426 599.936546 C1003.400191 596.576621 995.962569 592.805808 988.509200 589.089805 C981.596358 585.643211 974.392013 582.599082 967.984908 578.365318 C959.372359 572.674400 951.304732 566.134055 943.215377 559.691734 C940.749434 557.727805 937.915816 555.172141 937.162887 552.373130 C936.188399 548.749900 934.079757 548.436607 931.373946 547.991355 C929.832320 547.737754 928.253585 547.506858 926.796676 546.976707 C920.571944 544.711814 914.462813 542.103294 908.168868 540.060020 C898.309981 536.859641 888.291427 534.152244 878.424972 530.973960 C871.091598 528.611656 863.875289 525.879783 856.638595 523.226035 C851.722823 521.423362 846.362227 520.231101 842.085738 517.419456 C834.376021 512.350608 827.305831 506.303428 820.018233 500.601341 C816.900313 498.161826 813.834456 498.067466 810.836287 500.590415 C799.972823 509.731651 788.363997 517.900169 774.635848 521.766929 C767.460494 523.787986 759.599349 523.561302 752.027816 523.899558 C748.872359 524.040550 746.642013 524.874717 744.184737 526.941184 C741.808577 528.939536 738.444076 530.608787 735.420089 530.781272 C731.434737 531.008689 728.980025 532.862937 726.104964 535.127158 C720.288558 539.707725 714.446273 544.569419 707.865279 547.778648 C700.994857 551.129051 693.314437 552.937766 685.859664 554.942710 C675.030868 557.855125 664.102279 560.404868 653.185836 562.980247 C646.938277 564.454185 640.604903 565.564048 634.356673 567.035667 C627.849105 568.568321 621.395492 570.330589 614.923934 572.014366 C613.879378 572.286216 612.884261 572.763450 611.832869 572.991233 C604.028304 574.682029 596.186263 576.209983 588.412948 578.032371 C580.539473 579.878196 572.775557 582.202659 564.882674 583.951927 C556.292647 585.855735 547.598189 587.284324 538.979049 589.064536 C537.678023 589.333274 536.562606 590.433189 535.318831 591.064903 C533.946151 591.762107 532.584456 592.630088 531.113936 592.960471 C524.082686 594.539939 516.938827 595.670493 509.981246 597.512779 C500.859542 599.928184 491.877913 602.871177 482.828719 605.562644 C481.041915 606.094077 479.159224 606.350547 477.428695 607.014915 C471.535140 609.277427 465.745101 611.818870 459.809493 613.959800 C454.579390 615.846275 449.135482 617.142295 443.914168 619.050071 C435.235885 622.220664 426.640670 625.622947 418.048873 629.024619 C413.039229 631.008018 408.044600 633.050437 403.153060 635.304832 C398.667891 637.372093 394.346358 639.791709 389.924056 641.998496 C382.329757 645.788169 374.663619 649.437034 367.118758 653.321983 C358.455916 657.782737 349.937545 662.524253 341.270431 666.976219 C334.961348 670.217002 328.577071 673.329185 322.106734 676.232139 C316.631820 678.688621 310.968612 680.722190 305.425643 683.031700 C303.861800 683.683250 302.428176 684.647056 300.934829 685.467674 C301.949874 686.508079 302.960982 687.552329 303.981185 688.587669 C304.799972 689.418601 305.657271 690.213096 306.450606 691.067344 C323.661361 709.601219 340.869124 728.137962 358.068282 746.682700 C361.858382 750.769370 365.726363 754.791343 369.363509 759.011131 C381.203597 772.747825 392.884871 786.621787 404.771773 800.317466 C409.494735 805.759116 414.780135 810.714012 419.479964 816.174156 C425.560103 823.238059 431.105391 830.765342 437.244430 837.774864 C450.779769 853.229637 464.539412 868.487998 478.213790 883.820884 C489.286239 896.236228 500.395553 908.618797 511.419723 921.076804 C513.415816 923.332359 515.021163 925.928611 516.906844 928.287681 C525.319076 938.811485 533.702987 949.359031 542.220077 959.797691 C551.690291 971.404563 561.518294 982.726158 570.775680 994.498130 C579.905257 1006.107505 588.494674 1018.140891 597.361495 1029.957908 C603.569808 1038.231712 609.874618 1046.433250 616.082259 1054.707542 C620.842818 1061.053001 625.552718 1067.436912 630.225631 1073.847312 C638.805892 1085.617820 647.494613 1097.314109 655.825057 1109.259666 C659.369857 1114.342918 660.285872 1114.846824 666.751265 1113.060447 C674.514388 1110.915550 681.439010 1106.193992 689.831099 1105.886253 C692.007125 1105.806419 692.435164 1104.279075 690.681075 1102.163474 C686.019515 1096.541038 681.637496 1090.682395 677.250411 1084.838035 C668.101302 1072.650169 662.337081 1058.825218 657.773421 1044.409812 C655.257796 1036.463645 651.539351 1028.757224 650.125594 1020.635887 C647.926925 1008.006004 646.480697 995.134422 646.143477 982.327781 C645.892013 972.775352 648.989242 963.125083 648.653670 953.586753 C648.077376 937.211387 650.341231 921.249900 652.895736 905.237083 C653.319930 902.577720 653.514266 899.860130 654.186873 897.265830 C656.329024 889.003623 658.777999 880.819785 660.857406 872.542625 C662.684676 865.269065 664.211104 857.918662 665.790999 850.585166 C666.290877 848.264732 666.177169 845.760764 666.965743 843.563865 C669.097518 837.625022 671.493758 831.777183 673.913741 825.946555 C677.160079 818.124900 680.140181 810.158531 683.941573 802.610374 C688.540572 793.478294 693.800704 784.673362 698.921554 775.811851 C702.971847 768.803001 706.512130 761.327781 711.567611 755.106895 C722.611251 741.517417 733.960799 728.093894 746.166549 715.557823 C755.883040 705.578391 766.861983 696.781211 777.657577 687.918479 C783.339095 683.254234 789.594954 679.156455 796.017928 675.565757 C802.587081 671.893272 809.597640 668.962058 816.559859 666.053001 C825.793868 662.194663 834.904708 657.451194 844.560348 655.367027 C853.310592 653.478233 861.840377 648.887290 871.343429 650.915794 C872.345992 651.129783 874.223922 650.417808 874.659347 649.590232 C877.241378 644.682700 879.738814 639.705100 881.844283 634.578452 C884.920699 627.087425 888.877974 620.289146 895.274459 615.150718 C897.502364 613.361045 899.656783 610.648094 902.172774 610.200523 C910.667159 608.689292 919.299727 607.303184 927.896651 607.190574 C937.776290 607.061118 947.690474 608.167320 957.556319 609.092674 C961.345748 609.448142 964.677657 610.971824 966.555221 615.031944 C968.761519 619.803062 971.268111 624.532066 974.319381 628.796226 C981.334151 638.598960 989.002608 647.885032 993.186446 659.514060 C994.254561 662.482627 997.455855 665.434715 1000.413497 666.806114 C1005.556685 669.190818 1011.385299 670.046226 1016.716475 672.090598 C1021.739425 674.016990 1026.449996 676.742515 1031.371505 678.952537 C1041.487227 683.494956 1051.681075 687.864036 1061.779464 692.444053 C1064.874312 693.847556 1067.762496 695.706443 1070.746383 697.354942 C1078.490035 701.633323 1084.051558 708.376975 1089.958419 714.665244 C1095.490157 720.554405 1101.035811 726.522239 1105.780929 733.034263 C1111.102950 740.337730 1115.035933 748.665550 1120.466109 755.875205 C1129.084395 767.317771 1134.775435 780.205711 1140.452559 793.134422 C1143.793624 800.743247 1146.799972 808.511985 1149.632247 816.326438 C1151.370772 821.123618 1152.477706 826.148277 1153.901168 831.061241 C1155.883712 837.904197 1158.332320 844.646873 1159.792403 851.598167 C1161.869552 861.487754 1163.333785 871.512046 1164.866988 881.508384 C1166.338424 891.101096 1168.850631 900.760887 1168.632979 910.339622 C1168.157515 931.261436 1171.345382 952.277305 1166.184859 973.171348 C1164.102950 981.601035 1165.229171 990.823203 1164.897872 999.684898 C1164.848678 1001.000388 1165.349410 1002.759971 1164.686324 1003.562827 C1158.821944 1010.662132 1162.481124 1020.478782 1157.168014 1028.059959 C1153.957931 1032.640647 1153.422164 1039.096946 1151.694625 1044.713645 C1151.486373 1045.390403 1151.339400 1046.085960 1151.163863 1046.772849 C1151.968551 1046.456809 1153.047774 1046.368553 1153.531661 1045.785911 C1155.873824 1042.965843 1158.120284 1040.059837 1160.282515 1037.098045 C1165.506881 1029.941551 1170.336715 1022.468894 1175.927901 1015.614890 C1184.231978 1005.435203 1192.889571 995.529319 1201.695968 985.777305 C1216.526290 969.354637 1231.579879 953.133445 1246.571334 936.856773 C1248.714644 934.529563 1251.066695 932.395896 1253.269942 930.122276 C1262.925338 920.157615 1272.237960 909.834434 1282.279098 900.276084 C1298.062911 885.250938 1314.332686 870.736472 1330.896773 855.505821 M698.896712 835.505760 C697.230025 839.810996 695.188277 844.014304 693.983993 848.445274 C692.140609 855.227439 690.983993 862.193199 689.319869 869.028465 C688.407699 872.774864 686.724349 876.347190 685.964156 880.114158 C684.310775 888.307090 683.519393 896.700645 681.453841 904.776450 C679.341659 913.034324 677.064864 921.135276 677.848006 929.780235 C678.004439 931.507530 677.511702 933.289573 677.356917 935.049827 C676.646041 943.134666 673.021285 950.638389 673.708663 959.127769 C674.512923 969.060569 674.511031 979.156516 673.731551 989.093345 C672.877913 999.974693 677.188521 1009.815330 678.944564 1020.102439 C680.736617 1030.600242 685.197982 1040.745017 689.285994 1050.718284 C693.076827 1059.966575 697.997725 1068.798240 704.776046 1076.263450 C710.574752 1082.649803 717.131270 1088.345115 722.984603 1094.685691 C731.918990 1104.363914 742.696273 1111.616721 753.388717 1119.078025 C769.767745 1130.507591 787.749801 1138.799095 806.014083 1146.540550 C813.240218 1149.603416 820.655074 1152.292503 828.143599 1154.643455 C834.667037 1156.691306 841.420211 1158.004295 848.062789 1159.678001 C856.358443 1161.768089 864.593917 1164.131980 872.953170 1165.921165 C878.392989 1167.085349 884.479415 1166.335349 889.413131 1168.453391 C894.606978 1170.683250 899.583175 1170.995017 904.856978 1170.999656 C923.019820 1171.015525 941.182784 1171.022239 959.345504 1170.976707 C960.919967 1170.972679 962.499801 1170.597434 964.065841 1170.328636 C970.440841 1169.234886 976.965011 1168.645774 983.140181 1166.855979 C989.264937 1165.081077 995.203292 1162.728050 1001.601241 1161.948264 C1002.436202 1161.846336 1003.166671 1160.948753 1003.962691 1160.446678 C1004.752120 1159.948753 1005.509444 1159.330711 1006.373092 1159.031150 C1011.330123 1157.312278 1016.585128 1156.212180 1021.228927 1153.884544 C1028.988082 1149.995384 1036.280074 1145.187156 1043.916305 1141.037498 C1059.522750 1132.556785 1074.122848 1122.611228 1085.352340 1108.777366 C1093.262374 1099.032737 1100.234542 1088.430076 1106.742232 1077.676048 C1111.587935 1069.668479 1115.064620 1060.826194 1119.065230 1052.315330 C1122.079390 1045.903098 1125.522750 1039.616477 1127.765670 1032.935081 C1131.215011 1022.660423 1134.271529 1012.199241 1136.597335 1001.619834 C1138.406539 993.389976 1139.225264 984.884544 1139.786178 976.455100 C1140.305098 968.657920 1139.778487 960.796897 1139.923751 952.967857 C1140.156051 940.440086 1141.731368 927.804649 1140.557296 915.421653 C1139.456710 903.814842 1141.252608 892.053855 1137.226851 880.439475 C1134.162276 871.598533 1134.590255 861.610191 1132.554488 852.331870 C1130.467452 842.819724 1127.568160 833.451804 1124.469527 824.206687 C1122.126632 817.217063 1118.694259 810.600364 1116.127974 803.676353 C1110.365035 788.126914 1101.624312 774.208701 1092.710372 760.396140 C1088.266402 753.509849 1083.635909 746.697959 1078.534469 740.294761 C1073.257369 733.671043 1068.343062 725.920249 1061.430831 721.616233 C1048.121139 713.328819 1033.629683 706.880393 1019.394088 700.165855 C1013.013228 697.156150 1006.104781 695.228660 999.357589 693.052879 C997.137984 692.337119 994.512862 691.697837 992.345992 692.200034 C981.917769 694.617637 973.752608 689.715110 973.063155 679.325706 C972.619430 672.639488 969.509078 667.385459 966.351729 662.063560 C961.410933 653.735374 956.170821 645.575157 950.774337 637.533897 C949.500655 635.636009 947.296554 633.636314 945.183394 633.150413 C934.537887 630.702659 923.780074 629.407554 913.315352 634.052207 C911.336593 634.930381 908.813399 635.989890 907.934493 637.687156 C904.611007 644.105064 901.777389 650.783958 898.919478 657.433555 C895.819503 664.646140 893.376998 672.186668 889.747359 679.112266 C886.754928 684.821983 876.723433 684.448448 872.675460 679.435020 C870.483077 676.719688 868.415816 673.521812 863.383346 675.780784 C856.658492 678.799583 849.306807 680.386619 842.411910 683.070640 C833.090377 686.699180 823.264571 689.697166 814.895919 694.944541 C803.864303 701.861656 793.794417 710.409324 783.764571 718.798240 C774.991622 726.135825 766.559615 733.940269 758.516036 742.071800 C752.391463 748.263328 747.343734 755.506004 741.406356 761.899741 C730.346541 773.809654 723.229659 788.303611 715.095748 802.052024 C708.925155 812.481895 704.563399 823.981895 698.896712 835.505760 M878.896895 267.505760 C877.366988 257.642509 875.880904 247.772209 874.291427 237.918601 C873.236495 231.378791 871.952681 224.875465 870.928634 218.331199 C870.358809 214.689582 870.607711 210.857093 869.617110 207.356971 C867.475875 199.790443 864.698897 192.406120 862.344649 184.896232 C861.597213 182.511985 861.506270 179.929191 860.870284 177.501350 C858.943404 170.146873 856.654952 162.879234 854.956588 155.474754 C852.713668 145.696021 851.218795 135.739189 848.789962 126.011848 C847.000533 118.845390 843.628219 112.055953 842.049239 104.859779 C840.080733 95.888252 839.262374 86.666442 837.864913 77.565345 C837.632857 76.054328 837.350875 74.315124 836.456466 73.183723 C833.132857 68.979446 832.590621 64.216132 832.816451 59.135299 C832.846724 58.450179 831.791060 57.716796 831.238204 57.005767 C830.791060 57.655891 829.937911 58.319549 829.959029 58.954048 C830.193526 65.983375 830.514937 73.010963 830.915328 80.033172 C831.145431 84.066169 831.972701 88.107017 831.790816 92.110717 C831.575484 96.853286 830.081222 101.549186 829.978194 106.283523 C829.466353 129.799766 829.279464 153.322898 828.862716 176.841560 C828.755904 182.871955 828.205611 188.893699 827.901900 194.921577 C827.219161 208.473029 826.303512 222.019431 825.969893 235.579872 C825.636519 249.123924 825.533248 262.694633 825.982223 276.231986 C826.653975 296.487937 827.941451 316.722923 828.864181 336.971519 C829.084029 341.793083 828.321578 346.716544 829.007125 351.448844 C830.899947 364.515159 830.069014 377.709831 832.448287 390.874381 C834.825606 404.028709 833.786178 417.840080 833.824630 431.364646 C833.854049 441.721794 833.199996 452.079978 832.913009 462.439445 C832.811568 466.101981 832.958663 469.770988 832.882247 473.434745 C832.766890 478.959831 837.170333 481.070243 840.487716 484.245689 C847.804000 491.248588 855.962081 496.581870 865.748336 499.389243 C870.646285 500.794273 876.166549 501.458762 880.162154 504.242515 C886.001388 508.310874 892.822188 508.379600 898.952071 510.928245 C904.636764 513.291770 910.590865 515.007896 916.427535 517.005271 C924.888961 519.900840 933.195846 523.215843 942.433150 523.126182 C946.056930 523.090904 946.973800 521.351158 947.960006 518.531272 C949.736983 513.450523 951.771163 508.448264 953.936446 503.517967 C956.104781 498.580833 958.649581 493.810142 960.876143 488.897056 C963.926436 482.166618 966.412276 475.141715 969.936812 468.677421 C972.612594 463.769706 971.956954 460.170493 966.636397 458.234031 C962.873946 456.864677 959.212081 455.170066 955.379439 454.051719 C943.303512 450.527946 933.818648 442.859489 925.113082 434.407829 C920.694747 430.118400 917.350264 424.445548 914.483443 418.900230 C910.177169 410.570915 906.393966 401.928855 903.014815 393.177879 C900.901412 387.704398 899.941451 381.785972 898.458663 376.068504 C896.273848 367.643913 894.075728 359.222740 891.904708 350.794578 C891.514937 349.281120 890.725387 347.651450 890.977218 346.226859 C892.880416 335.459861 886.089400 326.080192 886.196578 315.711479 C886.283614 307.274619 884.782393 299.169669 882.918990 291.042167 C881.179610 283.456657 883.269332 275.275230 878.896895 267.505760 M804.896773 119.505760 C805.230147 109.811904 805.441085 100.111419 805.965133 90.427886 C806.142074 87.157409 807.485396 83.947708 807.641707 80.678954 C807.961348 73.994216 807.865279 67.288207 807.844039 60.591262 C807.842330 60.061538 807.092269 59.534202 806.689925 59.005744 C806.425521 59.505416 806.064925 59.977363 805.911666 60.509071 C804.413924 65.705825 803.832503 70.919631 801.361678 76.147834 C798.110335 83.027503 800.366012 91.721389 797.082137 99.343154 C795.078048 103.994567 794.977706 109.448928 793.877547 114.511192 C792.285994 121.834617 790.630782 129.145820 788.870894 136.430396 C787.851790 140.648918 786.415694 144.768867 785.451522 148.997993 C784.104598 154.905998 783.811995 161.126716 779.906905 166.205802 C779.826400 166.310523 779.928389 166.538490 779.892196 166.696845 C777.563949 176.894584 775.232345 187.091606 772.894027 197.287040 C772.580733 198.653098 772.242171 200.013679 771.894698 201.371497 C769.928817 209.053840 768.638717 217.001243 765.772445 224.332084 C763.447921 230.277549 763.074935 236.561820 760.337447 242.586997 C755.902755 252.347373 754.299972 263.394615 751.504744 273.899314 C751.025252 275.701347 750.598128 277.518058 750.084273 279.310050 C748.035201 286.456748 745.350692 293.486228 744.038131 300.764121 C742.010177 312.008994 739.473189 323.040794 736.053451 333.962303 C733.583358 341.850883 731.569686 350.139671 731.124373 358.346092 C730.416305 371.395469 730.701583 384.403037 727.046554 397.206718 C724.892989 404.750938 725.524642 413.266288 722.540023 420.348808 C719.427535 427.734977 713.784408 434.171989 708.666549 440.558280 C704.650313 445.569938 704.294417 446.047660 708.076400 451.718467 C714.509749 461.364860 720.802596 471.104820 727.185653 480.784904 C731.159285 486.810935 735.098067 492.864616 739.275680 498.747398 C740.078719 499.878257 742.445235 501.253013 743.198348 500.849632 C748.934859 497.777000 755.054915 499.630699 760.940597 498.944785 C764.181624 498.567039 767.758468 498.279563 770.475692 496.718528 C778.866927 491.897758 787.021468 486.639610 795.074508 481.261710 C804.858931 474.727531 811.836776 466.601890 808.903243 453.611015 C808.522872 451.926963 808.049666 450.236289 807.925094 448.526389 C806.875350 434.115623 805.588241 419.712394 804.993941 405.281303 C804.514388 393.638114 805.078719 381.954673 804.776778 370.299583 C804.694930 367.142021 803.135848 364.026115 802.281722 360.883811 C801.792220 359.083000 801.012984 357.279014 800.951888 355.456718 C800.515426 342.435813 800.101363 329.411460 799.933028 316.384971 C799.766585 303.500785 799.896773 290.612785 799.896773 277.726463 C799.896773 264.783042 799.767867 251.837974 799.935836 238.896736 C800.081160 227.702644 800.674727 216.514823 800.863143 205.320731 C801.025680 195.659889 800.860152 185.993858 800.934005 176.330863 C800.945846 174.777274 801.357039 173.203925 801.742354 171.679862 C803.707869 163.904517 805.434798 156.180030 805.006392 147.991248 C804.528304 138.852516 804.896773 129.669502 804.896773 119.505760 z"/><path class="selected"  fill="#000000" opacity="1.000000" stroke="none" 
 	d="
M812.896773 1110.005760 C808.422591 1100.698264 803.880355 1091.924461 799.499556 1083.070823 C796.836471 1077.688499 794.040450 1072.322532 791.987166 1066.699851 C788.970015 1058.437644 785.740279 1050.104637 784.152816 1041.515037 C782.843368 1034.430320 788.027572 1024.948020 797.387801 1023.975120 C804.813399 1023.203391 811.907088 1023.428367 819.033736 1026.461692 C827.666549 1030.136131 836.857345 1032.491844 845.522384 1036.100730 C856.316085 1040.596458 865.440963 1047.407737 871.299972 1057.906516 C872.584273 1060.207908 873.746993 1062.593284 875.212325 1064.774314 C878.774703 1070.076804 883.619796 1071.048606 890.925216 1067.388450 C899.199996 1063.242210 907.864181 1060.672019 916.919600 1058.892478 C923.204635 1057.657371 929.183150 1057.004295 935.721236 1057.689231 C942.799361 1058.431175 950.132857 1056.216453 957.362594 1056.152000 C968.542891 1056.052268 979.888961 1055.675926 990.850997 1057.405174 C996.880660 1058.356346 1002.157393 1063.604759 1008.012008 1066.419944 C1009.869430 1067.313255 1012.715499 1067.222190 1014.728560 1066.508445 C1019.647139 1064.763938 1024.430221 1062.566551 1029.108687 1060.232200 C1035.931685 1056.827903 1043.376388 1054.452903 1048.798629 1048.626487 C1052.507491 1044.641136 1057.762496 1043.752708 1062.180587 1045.299095 C1066.475753 1046.802268 1069.735640 1050.786033 1069.919356 1056.190818 C1070.160201 1063.275535 1070.650191 1070.352561 1070.825606 1077.438133 C1070.861861 1078.903587 1070.280684 1080.574607 1069.488204 1081.840476 C1062.028243 1093.758323 1054.219161 1105.464378 1047.001998 1117.525291 C1041.461715 1126.783958 1035.479781 1135.614646 1027.465987 1142.882957 C1021.350142 1148.429954 1014.424239 1151.812766 1006.346847 1154.693382 C997.605025 1157.810935 988.660445 1157.309471 980.157027 1160.117332 C969.875899 1163.512229 958.743331 1156.679344 955.856124 1146.004783 C954.811568 1142.142967 952.858443 1138.489524 952.130782 1134.589744 C951.422530 1130.793601 949.161666 1130.077537 946.089156 1130.019920 C942.758712 1129.957420 939.426436 1130.005760 936.094893 1130.005760 C927.900191 1130.005760 927.069259 1130.851707 923.831832 1138.993675 C921.268233 1145.441184 917.425338 1151.282493 911.820479 1155.455100 C904.596114 1160.833396 896.500899 1159.298728 888.676192 1156.944969 C881.892257 1154.904319 875.194014 1152.524680 868.588668 1149.958396 C860.414473 1146.782615 852.237105 1143.549339 844.325728 1139.785056 C839.010665 1137.256126 834.055465 1133.913474 829.115523 1130.666526 C821.578536 1125.712669 817.686568 1117.725974 812.896773 1110.005760 M893.396773 1095.005760 C888.505416 1095.672508 883.617110 1096.864036 878.722213 1096.890891 C869.925338 1096.939109 863.393722 1092.527976 857.789351 1085.771873 C851.327315 1077.981712 848.999556 1066.691429 838.072555 1062.609641 C832.021163 1060.349387 826.195723 1057.487571 820.180953 1055.119529 C819.611251 1054.895286 818.106856 1056.089012 817.611983 1056.953758 C817.259078 1057.570335 817.662154 1058.852073 818.088057 1059.642967 C820.293746 1063.738304 822.751876 1067.701682 824.868453 1071.840598 C829.295211 1080.497093 833.468306 1089.283836 837.925582 1097.924217 C841.746871 1105.331931 847.279220 1111.278221 855.018355 1114.533225 C867.648604 1119.845603 880.428267 1124.810691 893.238082 1129.676780 C894.476607 1130.147239 897.033004 1129.397727 897.829024 1128.345603 C899.864303 1125.655540 901.500167 1122.582908 902.852706 1119.470847 C908.081222 1107.440330 918.634200 1096.449119 934.431685 1102.165428 C942.827071 1105.203269 951.220260 1104.899925 959.744918 1105.005515 C959.911544 1105.007591 960.078658 1104.999046 960.244918 1105.006736 C966.326461 1105.286765 975.766402 1112.130149 976.910079 1117.000022 C977.906417 1121.242332 978.670577 1125.587058 980.186202 1129.644065 C981.388595 1132.862449 983.320357 1135.524192 987.849898 1133.126609 C990.934005 1131.494285 994.729293 1131.266624 998.014449 1129.936424 C1001.722701 1128.434959 1006.415084 1127.310813 1008.590743 1124.439720 C1017.138961 1113.159202 1024.875533 1101.262596 1032.875289 1089.568626 C1033.448531 1088.730613 1033.714522 1087.682639 1034.123336 1086.732444 C1032.867476 1086.837180 1031.464278 1086.615623 1030.382125 1087.104637 C1026.306441 1088.946311 1022.520675 1092.014793 1018.287398 1092.803001 C1008.836715 1094.562522 1000.113814 1091.568992 991.960128 1086.631248 C986.267501 1083.183982 980.571090 1079.716697 973.287154 1080.934104 C967.845382 1081.843650 962.343429 1080.096214 956.824630 1083.668601 C953.481368 1085.832664 947.990279 1084.874534 943.457198 1084.961448 C935.294112 1085.118064 927.125899 1084.992332 918.959762 1085.019676 C917.668868 1085.023948 916.245894 1084.893089 915.109542 1085.366477 C908.002974 1088.327293 900.960494 1091.442039 893.396773 1095.005760 z"/><path class="selected"  fill="#000000" opacity="1.000000" stroke="none" 
 	d="
M916.146773 878.255760 C911.661178 885.074607 907.691207 891.835166 903.122481 898.163413 C897.522872 905.919395 891.456588 913.340843 885.529098 920.857261 C878.566695 929.686241 868.726485 930.223594 858.994185 928.701743 C855.063399 928.086997 851.474898 924.321189 848.054854 921.584190 C838.219649 913.713523 832.120406 902.752769 825.198531 892.593711 C817.582076 881.415122 811.179549 869.416404 803.795394 858.069724 C800.452559 852.933067 799.003585 848.020042 800.845504 842.080650 C802.145919 837.886985 805.332869 835.251487 809.016402 835.188499 C822.553878 834.956809 836.255538 833.640891 849.371871 838.841758 C851.241500 839.583030 853.642745 838.981590 855.797896 839.006248 C863.657882 839.095970 871.344039 839.189842 879.121505 841.709373 C884.819259 843.555259 891.413741 843.086448 897.584884 842.892661 C904.135909 842.686912 909.455001 845.825584 914.728927 848.598838 C920.084762 851.415061 921.182296 857.720359 920.064132 864.506492 C919.292281 869.191001 919.769210 874.070762 916.146773 878.255760 M841.396773 869.005760 C846.914473 877.190208 852.389571 885.404014 857.979293 893.539024 C859.429976 895.650047 860.914107 898.037986 862.987227 899.325950 C864.625533 900.343711 867.791182 900.789756 869.213424 899.860191 C871.851851 898.135825 873.905929 895.366905 875.858321 892.773277 C880.603805 886.469383 885.180831 880.037437 889.753219 873.605613 C890.636886 872.362510 892.115767 870.300987 891.698775 869.640281 C890.899825 868.374168 889.002242 867.273033 887.447310 867.095420 C874.389937 865.604698 861.298507 864.413230 848.239181 862.938804 C845.833907 862.667259 843.539718 861.480186 841.167525 860.809532 C840.411300 860.595725 838.925338 860.491233 838.872115 860.667686 C838.549483 861.739341 838.189742 863.022422 838.514205 864.015525 C839.032515 865.602378 840.075484 867.017845 841.396773 869.005760 z"/><path class="selected"  fill="#000000" opacity="1.000000" stroke="none" 
 	d="
M1087.146773 886.255760 C1080.771895 898.465904 1073.397750 909.387473 1062.663375 917.865562 C1056.779586 922.512534 1046.052779 921.874778 1040.155929 916.883994 C1032.477706 910.385581 1024.323287 904.453269 1016.529098 898.087303 C1008.036666 891.151084 999.538619 884.200828 991.402633 876.858054 C986.929854 872.821555 984.753463 867.375755 984.870040 861.131126 C985.008834 853.700401 991.187423 847.251731 998.715499 847.023765 C1002.206954 846.918052 1005.718062 847.202964 1009.195968 846.961448 C1015.025680 846.556541 1020.943404 848.264549 1026.610396 844.264182 C1029.229903 842.415061 1033.820968 843.450462 1037.493453 842.983482 C1046.327559 841.860130 1055.127730 840.444846 1063.977706 839.478233 C1073.454879 838.443199 1082.815108 838.126548 1090.694747 845.226402 C1096.542891 850.495750 1096.135299 857.019126 1095.566817 863.906700 C1094.890792 872.096336 1090.210250 878.678672 1087.146773 886.255760 M1029.896773 875.505760 C1035.924605 880.200218 1042.018599 884.813194 1047.947066 889.629966 C1050.261397 891.510459 1052.410201 893.167320 1054.520308 889.824668 C1059.411910 882.075645 1064.144942 874.225242 1068.792647 866.327964 C1068.977462 866.014060 1067.535323 864.058433 1067.017135 864.126731 C1063.773726 864.553855 1060.606246 865.625450 1057.360274 865.949851 C1049.016402 866.783897 1040.631514 867.214561 1032.294478 868.101768 C1030.429122 868.300254 1028.692672 869.708824 1026.896895 870.560264 C1027.730147 872.042075 1028.563521 873.523887 1029.896773 875.505760 z"/><path class="selected"  fill="#000000" opacity="1.000000" stroke="none" 
 	d="
M946.896773 937.005760 C949.925704 935.476829 952.769088 934.295310 954.920455 932.349021 C959.901046 927.843345 963.800948 927.836997 968.722091 932.252647 C976.743331 939.450096 980.167159 949.365684 984.911544 958.525352 C988.251021 964.972556 992.024093 971.211509 995.067183 977.791526 C998.420455 985.042503 1003.732589 991.497154 1003.959884 1000.092674 C1004.139693 1006.889366 998.015181 1016.025901 988.853316 1015.109275 C983.250655 1014.548728 977.513473 1015.391624 971.895064 1014.914573 C963.647139 1014.214256 955.466598 1012.751121 947.228194 1011.894676 C941.880050 1011.338767 936.471602 1010.950950 931.105269 1011.085960 C923.535079 1011.276634 916.465133 1010.005882 910.711104 1004.903282 C908.888595 1003.287193 907.492965 1000.580039 907.052291 998.162559 C906.435836 994.779685 906.197432 991.012657 907.073287 987.752830 C908.174361 983.655357 910.067428 979.559226 912.490645 976.067527 C920.243087 964.896140 928.382491 953.992515 936.407760 943.011436 C938.877974 939.631553 942.273726 937.688255 946.896773 937.005760 M941.396773 986.005760 C949.411910 987.806114 957.978194 986.102805 965.714034 989.922691 C966.916793 990.516624 968.770064 990.321128 970.117476 989.873557 C970.798018 989.647605 971.656539 987.731468 971.352340 987.105125 C967.650680 979.484702 963.761397 971.954917 959.891036 964.416953 C957.840865 960.423972 956.043380 959.922569 953.314620 963.200828 C948.639327 968.817771 944.191085 974.646018 940.034835 980.653526 C939.239181 981.803672 940.230147 984.189842 941.396773 986.005760 z"/><path class="selected"  fill="#000000" opacity="1.000000" stroke="none" 
 	d="
M934.896773 682.005760 C935.230147 686.185691 935.576705 689.864524 935.886641 693.546409 C935.955977 694.370567 936.112960 695.280784 935.855269 696.021079 C935.150435 698.045188 934.246016 699.999778 933.420455 701.981895 C932.912520 700.050193 931.990157 698.123802 931.965255 696.185935 C931.823897 685.175804 931.840621 674.162376 931.969649 663.152000 C931.985274 661.814170 932.997359 660.488120 933.547652 659.156577 C933.997237 660.464317 934.805709 661.763999 934.835372 663.081138 C934.973678 669.220054 934.896773 675.363731 934.896773 682.005760 z"/></svg>