<?xml version="1.0" encoding="utf-8"?><!DOCTYPE svg PUBLIC "-//W3C//DTD SVG 1.1//EN" "http://www.w3.org/Graphics/SVG/1.1/DTD/svg11.dtd"><svg version="1.1" id="Contours" xmlns="http://www.w3.org/2000/svg" xmlns:xlink="http://www.w3.org/1999/xlink" x="0px" y="0px" width="2022.716309px" height="2022.716309px" viewBox="0.000000 -0.000000 2022.716309 2025.208496" enable-background="new 0 0 2022.716309 2022.716309" xml:space="preserve" stroke="black" fill="none" stroke-linecap='round' stroke-linejoin='round'><path class="selected"  fill="#000000" opacity="1.000000" stroke="none" 
 	d="
M987.989009 1025.568945 C988.655464 1026.132702 989.321919 1026.696459 989.988374 1027.260215 C989.924388 1029.259211 988.654472 1031.172191 986.837110 1032.007226 C985.252975 1030.839336 983.975554 1029.259147 983.165550 1027.465451 C984.190369 1026.112039 986.102173 1025.506212 987.719439 1026.022382 z"/><path class="selected"  fill="#000000" opacity="1.000000" stroke="none" 
 	d="
M996.815177 992.824342 C994.488419 991.359632 992.715437 989.037033 991.915992 986.406431 C993.525948 984.882773 996.454774 985.130040 997.786496 986.902045 C999.118218 988.674050 998.541177 991.556095 996.629880 992.678785 z"/><path class="selected"  fill="#000000" opacity="1.000000" stroke="none" 
 	d="
M1020.108814 984.859885 C1019.367050 987.225154 1015.703148 987.914284 1014.133336 985.995846 C1012.563524 984.077409 1013.927782 980.644213 1016.382821 980.301434 C1018.837860 979.958654 1021.089411 982.845061 1020.183144 985.152309 z"/><path class="selected"  fill="#000000" opacity="1.000000" stroke="none" 
 	d="
M1694.554969 1290.752312 C1776.536107 1328.874466 1858.517246 1366.996620 1940.498384 1405.118774 C1855.545526 1373.110072 1770.592668 1341.101371 1685.639810 1309.092669 C1640.416382 1387.306204 1595.192953 1465.519739 1549.969525 1543.733273 C1612.888982 1601.298563 1671.135231 1663.970271 1723.947113 1730.929406 C1661.975586 1671.335809 1600.004059 1611.742213 1538.032532 1552.148616 C1458.219086 1597.642627 1378.405641 1643.136638 1298.592196 1688.630649 C1329.189076 1775.026444 1359.785956 1861.422240 1390.382836 1947.818036 C1353.049199 1864.868750 1315.715562 1781.919464 1278.381925 1698.970179 C1190.775731 1722.229058 1103.169536 1745.487938 1015.563342 1768.746817 C1019.319552 1854.245508 1017.185415 1940.002468 1009.181069 2025.208487 C1001.389305 1939.387181 999.637799 1853.018039 1003.943793 1766.951398 C921.690225 1744.370443 839.436657 1721.789487 757.183088 1699.208531 C744.217976 1695.649237 725.932776 1694.731970 721.871263 1707.548631 C696.041054 1789.059395 660.638344 1867.532239 616.623260 1940.838969 C644.011145 1854.301969 677.889389 1769.819885 717.879515 1688.336522 C638.743987 1642.633508 559.608459 1596.930494 480.472931 1551.227480 C419.235355 1609.968586 357.997780 1668.709691 296.760204 1727.450797 C349.492711 1659.891040 408.283717 1597.061986 472.196874 1539.964294 C426.546984 1459.983208 380.897094 1380.002122 335.247204 1300.021037 C248.833309 1330.039776 162.419414 1360.058516 76.005519 1390.077256 C159.036800 1353.493647 242.068080 1316.910039 325.099360 1280.326430 C301.658114 1192.956743 278.216868 1105.587056 254.775622 1018.217369 C169.850415 1015.730764 84.925207 1013.244159 0.000000 1010.757553 C76.124583 1007.594245 152.249165 1004.430936 228.373748 1001.267628 C238.156387 1000.861117 248.833602 1000.099974 256.017511 993.447401 C261.762635 988.127155 264.021681 980.132271 266.031524 972.564449 C287.187360 892.904144 308.343217 813.243846 329.499073 733.583549 C246.926172 696.304803 164.353271 659.026057 81.780371 621.747311 C168.497705 643.831610 252.489120 676.597870 331.252825 719.070108 C381.234356 641.031717 428.390921 561.184058 472.599134 479.736051 C409.412250 422.321328 351.021880 359.629506 298.235669 292.527727 C360.177011 352.361682 422.118353 412.195637 484.059696 472.029593 C564.645657 425.468270 645.231618 378.906947 725.817579 332.345624 C694.366099 247.235576 662.914619 162.125528 631.463140 77.015480 C669.192256 159.648268 706.921373 242.281055 744.650489 324.913842 C832.165488 301.586456 919.680487 278.259069 1007.195486 254.931683 C1002.034651 169.937720 1004.896760 84.458386 1015.731377 -0.000000 C1017.225780 85.684161 1018.720184 171.368323 1020.214587 257.052484 C1101.877071 279.650449 1183.539556 302.248415 1265.202040 324.846380 C1278.159096 328.431908 1296.450569 329.376313 1300.515499 316.561569 C1326.389637 234.992999 1361.817294 156.459291 1405.842744 83.079033 C1377.980288 169.452983 1344.343066 253.963607 1305.230117 335.859595 C1384.077390 381.558605 1462.924662 427.257615 1541.771935 472.956625 C1603.092164 414.119063 1664.412394 355.281502 1725.732623 296.443940 C1673.183261 364.136732 1614.392288 426.982146 1550.349063 483.922595 C1595.995564 563.913031 1641.642066 643.903467 1687.288567 723.893904 C1773.742980 693.774927 1860.197393 663.655949 1946.651806 633.536972 C1863.554022 670.381785 1780.456239 707.226599 1697.358455 744.071412 C1720.902276 831.366823 1744.446096 918.662234 1767.989917 1005.957645 C1852.898701 1007.862215 1937.807485 1009.766786 2022.716269 1011.671356 C1937.195190 1021.145418 1850.922867 1023.829898 1764.978210 1019.691226 C1741.503796 1110.044922 1718.029382 1200.398617 1694.554969 1290.752312 M1017.022337 1001.145596 C1144.995806 698.235399 1272.969275 395.325201 1400.942745 92.415004 C1272.820997 388.444386 1144.699252 684.473769 1016.577507 980.503152 C1015.153895 655.306609 1013.730283 330.110068 1012.306672 4.913526 C1010.794890 336.314840 1009.283108 667.716155 1007.771327 999.117469 C883.630573 694.116465 759.489819 389.115461 635.349066 84.114457 C754.820884 385.117242 874.292703 686.120027 993.764522 987.122813 C763.103713 758.051086 532.442911 528.979357 301.782108 299.907628 C535.083529 535.386744 768.384952 770.865859 1001.686375 1006.344974 C697.761797 878.178111 393.837221 750.011243 89.912646 621.844376 C389.046898 750.542450 688.181152 879.240519 987.315406 1007.938587 C659.956967 1008.809128 332.598528 1009.679670 5.240089 1010.550211 C336.479631 1012.234435 667.719173 1013.918658 998.958715 1015.602882 C693.750695 1139.618621 388.542675 1263.634360 83.334655 1387.650099 C384.334918 1268.400462 685.335181 1149.150826 986.335443 1029.901189 C757.122283 1260.553444 527.909120 1491.205693 298.695957 1721.857941 C534.297626 1488.674113 769.899293 1255.490282 1005.500959 1022.306452 C877.544063 1325.362521 749.587166 1628.418589 621.630269 1931.474657 C750.290258 1632.818381 878.950246 1334.162105 1007.610234 1035.505829 C1008.304648 1363.645633 1008.999062 1691.785438 1009.693475 2019.925243 C1011.324340 1687.751735 1012.955205 1355.578228 1014.586070 1023.404720 C1138.871665 1328.828366 1263.157254 1634.252013 1387.442843 1939.675659 C1266.949401 1637.261567 1146.455953 1334.847477 1025.962505 1032.433388 C1257.999318 1263.492022 1490.036131 1494.550657 1722.072944 1725.609291 C1488.918695 1489.758093 1255.764445 1253.906895 1022.610196 1018.055698 C1325.929209 1146.070304 1629.248222 1274.084911 1932.567234 1402.099518 C1633.753696 1273.480234 1334.940157 1144.860952 1036.126618 1016.241670 C1363.848451 1015.202966 1691.570285 1014.164261 2019.292119 1013.125557 C1743.762052 1011.875607 1468.231986 1010.625658 1192.701920 1009.375708 C1207.220964 1007.398511 1221.740009 1005.421314 1236.259054 1003.444117 C1230.757562 979.603412 1225.256069 955.762707 1219.754577 931.922002 C1204.921272 938.089402 1190.087966 944.256801 1175.254661 950.424201 C1179.082099 970.743664 1182.909537 991.063127 1186.736976 1011.382590 C1132.804914 1009.899957 1078.872855 1008.417321 1024.940797 1006.934686 C1329.675818 883.283144 1634.410840 759.631605 1939.145861 635.980065 C1636.806432 756.240959 1334.467003 876.501853 1032.127573 996.762746 C1262.681840 765.159454 1493.236107 533.556162 1723.790374 301.952870 C1488.201029 535.017113 1252.611684 768.081355 1017.022339 1001.145598 M1579.133731 773.394055 C1614.293998 759.105913 1649.454266 744.817771 1684.614534 730.529629 C1639.177351 651.419331 1593.740168 572.309032 1548.302985 493.198733 C1547.659849 492.078974 1546.781156 490.814765 1545.489844 490.814250 C1544.527262 490.813874 1543.737707 491.538054 1543.054477 492.216110 C1516.191654 518.875623 1489.328829 545.535135 1462.466004 572.194646 C1460.590267 574.056186 1458.599115 576.156985 1458.399455 578.792104 C1458.232114 581.000684 1459.374322 583.072724 1460.479562 584.992170 C1495.931640 646.561006 1531.383718 708.129842 1566.835796 769.698678 C1567.879546 771.511334 1569.034705 773.429578 1570.927389 774.320018 C1573.495274 775.528116 1576.504647 774.462441 1579.133731 773.394055 M561.074607 1450.332331 C562.394208 1449.018026 563.774795 1447.594854 564.155956 1445.771818 C564.633600 1443.487290 563.426513 1441.223980 562.262096 1439.201274 C526.950063 1377.861036 491.638035 1316.520797 456.326008 1255.180557 C454.828842 1252.579841 453.006069 1249.730733 450.074311 1249.090399 C447.960998 1248.628824 445.802857 1249.458051 443.798656 1250.271882 C408.434812 1264.631817 373.070967 1278.991751 337.707123 1293.351684 C383.949419 1373.778868 430.191716 1454.206051 476.434012 1534.633234 C504.647544 1506.532933 532.861075 1478.432632 561.074607 1450.332331 M488.829159 477.178061 C516.981257 506.246333 545.443278 535.014450 574.208754 563.475871 C576.934017 566.172328 581.495857 564.374657 584.815307 562.456532 C646.637853 526.732678 708.460400 491.008828 770.282947 455.284978 C771.842161 454.383994 773.495779 453.381701 774.236124 451.740113 C775.199175 449.604716 774.314958 447.132656 773.431044 444.963304 C759.545897 410.885575 745.660750 376.807846 731.775602 342.730116 C731.282880 341.520850 730.621053 340.158970 729.352445 339.849561 C728.330757 339.600376 727.300515 340.143371 726.388701 340.667333 C647.202188 386.170910 568.015673 431.674485 488.829159 477.178061 M1450.617128 1462.531657 C1448.914948 1460.818266 1446.987681 1458.997710 1444.577668 1458.839725 C1442.615699 1458.711111 1440.781508 1459.726211 1439.078460 1460.708804 C1376.482829 1496.824065 1313.887198 1532.939327 1251.291567 1569.054588 C1249.978449 1569.812207 1248.584909 1570.656362 1247.966551 1572.040522 C1247.168668 1573.826546 1247.912198 1575.888383 1248.654729 1577.698121 C1263.347306 1613.507549 1278.039878 1649.316978 1292.732449 1685.126408 C1373.119896 1638.870204 1453.507342 1592.614001 1533.894789 1546.357797 C1506.135568 1518.415750 1478.376348 1490.473703 1450.617128 1462.531657 M1241.152297 447.753369 C1242.396778 446.838191 1243.050714 445.344299 1243.650605 443.920777 C1258.671626 408.276288 1273.692648 372.631801 1288.713670 336.987314 C1200.765764 313.324882 1112.817858 289.662449 1024.869951 266.000017 C1023.531949 265.640026 1021.982191 265.314268 1020.859277 266.125998 C1019.655200 266.996402 1019.553608 268.720004 1019.565644 270.205688 C1019.874106 308.279159 1020.182566 346.352629 1020.491027 384.426099 C1020.507204 386.422841 1020.583680 388.593679 1021.856860 390.131943 C1023.007730 391.522430 1024.867074 392.061489 1026.610569 392.528586 C1095.643782 411.023173 1164.676994 429.517759 1233.710207 448.012346 C1236.195367 448.678141 1239.079611 449.277600 1241.152298 447.753372 M1002.000475 1638.808358 C1001.984828 1636.994451 1001.916624 1635.026699 1000.773290 1633.618405 C999.707216 1632.305278 997.961299 1631.798607 996.327215 1631.362046 C926.263943 1612.644030 856.200672 1593.926013 786.137401 1575.207995 C784.775292 1574.844096 783.281088 1574.489082 781.998573 1575.074677 C780.617280 1575.705374 779.913041 1577.224383 779.321747 1578.622998 C765.168208 1612.100995 751.014670 1645.578992 736.861131 1679.056989 C735.502147 1682.271456 734.899795 1687.215580 738.269605 1688.123334 C824.792987 1711.430811 911.316367 1734.738289 997.839747 1758.045767 C998.877290 1758.325258 1000.008478 1758.599766 1000.997689 1758.180155 C1002.752167 1757.435924 1003.003582 1755.095446 1002.987146 1753.189718 C1002.658252 1715.062597 1002.329364 1676.935478 1002.000475 1638.808358 M449.294036 782.888297 C414.524040 766.728034 379.267164 751.615350 343.587343 737.577648 C341.532820 736.769326 339.147422 735.978363 337.208944 737.035127 C335.408643 738.016566 334.718696 740.208306 334.188315 742.188963 C310.859915 829.306749 287.531514 916.424535 264.203114 1003.542322 C304.686978 1003.275840 345.170842 1003.009358 385.654706 1002.742877 C387.712625 1002.729331 390.315504 1002.319185 390.836876 1000.328359 C409.851088 927.722670 429.337359 855.240608 449.294036 782.888297 M1573.571843 1241.337599 C1608.952389 1257.541385 1644.792920 1272.740788 1681.035730 1286.911334 C1682.398414 1287.444129 1683.936438 1287.975671 1685.280102 1287.396581 C1686.837912 1286.725198 1687.448522 1284.877781 1687.886610 1283.238999 C1709.174747 1203.605083 1730.462885 1123.971167 1751.751023 1044.337252 C1753.932215 1036.177926 1756.128286 1027.976372 1759.603594 1020.278681 C1718.862353 1020.549883 1678.121112 1020.821085 1637.379872 1021.092287 C1636.053710 1021.101115 1634.649206 1021.131738 1633.527381 1021.839050 C1632.019423 1022.789826 1631.445862 1024.672201 1630.985814 1026.394487 C1611.847829 1098.042193 1592.709836 1169.689896 1573.571843 1241.337599 M1253.380833 454.827674 C1314.691016 491.567506 1376.001200 528.307338 1437.311383 565.047170 C1441.036504 567.279430 1446.199968 569.385381 1449.291648 566.335621 C1477.075882 538.927995 1504.860118 511.520377 1532.644354 484.112759 C1533.951692 482.823142 1535.368788 481.211387 1535.036125 479.405402 C1534.742949 477.813783 1533.208133 476.806777 1531.811700 475.988743 C1457.108638 432.227560 1382.405577 388.466377 1307.702515 344.705193 C1306.072846 343.750530 1304.089326 342.773542 1302.389397 343.596612 C1301.154293 344.194629 1300.517324 345.555647 1299.973787 346.815674 C1284.442803 382.819674 1268.911818 418.823674 1253.380833 454.827674 M722.255530 1677.035492 C737.881648 1641.073011 753.507767 1605.110530 769.133885 1569.148049 C707.473250 1532.153587 645.812615 1495.159124 584.151980 1458.164662 C582.365406 1457.092773 580.462701 1455.987122 578.379243 1455.987856 C575.457181 1455.988889 573.030986 1458.127830 570.913832 1460.141807 C541.907287 1487.734839 513.532670 1515.992163 485.819730 1544.884165 C562.369348 1589.701087 638.918966 1634.518009 715.468584 1679.334931 C716.684649 1680.046891 718.083292 1680.784815 719.435134 1680.387040 C720.884565 1679.960549 721.653421 1678.421208 722.255531 1677.035493 M331.754098 1280.076109 C369.975004 1265.394307 408.063817 1250.368634 446.014374 1235.001522 C428.428602 1164.299976 410.842829 1093.598430 393.257057 1022.896884 C392.864474 1021.318550 392.403542 1019.628181 391.147630 1018.594767 C389.803088 1017.488427 387.909823 1017.427633 386.168644 1017.419001 C346.543083 1017.222589 306.917523 1017.026174 267.291963 1016.829760 C266.327289 1016.824979 265.256115 1016.860741 264.563214 1017.531939 C263.617880 1018.447663 263.880219 1019.998006 264.212563 1021.271487 C286.726411 1107.539694 309.240255 1193.807902 331.754098 1280.076109 M1581.955423 786.500750 C1580.286664 787.159661 1578.476725 787.943233 1577.671701 789.546622 C1576.888532 791.106481 1577.294532 792.972855 1577.716743 794.666447 C1594.808411 863.225426 1611.900079 931.784406 1628.991748 1000.343385 C1629.472991 1002.273774 1630.069645 1004.376409 1631.711930 1005.499304 C1633.056668 1006.418743 1634.795286 1006.458796 1636.424281 1006.466375 C1675.920101 1006.650057 1715.415921 1006.833746 1754.911740 1007.017434 C1756.240952 1007.023616 1757.827124 1006.888554 1758.475827 1005.728370 C1758.941968 1004.894692 1758.712179 1003.860957 1758.470424 1002.936912 C1735.853392 916.489517 1713.236362 830.042122 1690.619332 743.594727 C1654.398029 757.896735 1618.176726 772.198742 1581.955423 786.500750 M1000.401749 393.506338 C1001.969773 393.111648 1003.669606 392.630381 1004.611031 391.315771 C1005.408431 390.202265 1005.473661 388.741500 1005.508596 387.372370 C1006.556720 346.291679 1006.720917 305.188438 1006.001029 264.100686 C918.255370 287.017051 830.509711 309.933416 742.764053 332.849781 C756.861545 368.510533 770.959038 404.171286 785.056531 439.832038 C785.925948 442.031300 786.990924 444.440412 789.160356 445.381795 C790.973471 446.168561 793.058026 445.697166 794.974696 445.214718 C863.450381 427.978591 931.926065 410.742465 1000.401749 393.506338 M1016.860951 1631.682546 C1016.117149 1674.324174 1016.054291 1716.977678 1016.672409 1759.621313 C1104.436414 1736.804538 1192.200419 1713.987764 1279.964424 1691.170989 C1265.634772 1655.231452 1251.305119 1619.291915 1236.975467 1583.352377 C1236.295889 1581.647959 1235.507815 1579.815571 1233.907531 1578.917818 C1232.142811 1577.927824 1229.953919 1578.379947 1227.987976 1578.858893 C1157.504079 1596.030408 1087.126602 1613.638741 1016.860951 1631.682546 M1537.744157 1532.708907 C1539.905828 1534.910636 1543.967284 1536.963075 1545.526941 1534.300764 C1589.934012 1458.498040 1634.341085 1382.695324 1678.748158 1306.892607 C1679.403913 1305.773235 1680.082574 1304.470169 1679.671250 1303.239794 C1679.267738 1302.032790 1677.980876 1301.396719 1676.814604 1300.887317 C1642.673168 1285.975110 1608.531733 1271.062901 1574.390298 1256.150693 C1572.714483 1255.418735 1570.820946 1254.677745 1569.113423 1255.332331 C1567.653362 1255.892053 1566.746649 1257.323211 1565.943279 1258.664727 C1528.403366 1321.351124 1490.863452 1384.037519 1453.323538 1446.723915 C1481.463745 1475.385579 1509.603951 1504.047243 1537.744157 1532.708907 M561.269884 569.180246 C535.774182 543.189638 510.278480 517.199029 484.782778 491.208421 C482.611501 488.994996 478.529633 486.931606 476.963335 489.607501 C432.773102 565.103005 388.582869 640.598509 344.392637 716.094013 C343.590409 717.464556 342.760528 719.063644 343.274946 720.566086 C343.771489 722.016302 345.319978 722.778821 346.724978 723.391727 C380.515901 738.132348 414.306821 752.872972 448.097742 767.613597 C449.747747 768.333379 451.588352 769.065033 453.296012 768.495384 C454.948630 767.944096 455.976231 766.338293 456.870638 764.843268 C492.326860 705.577231 527.783082 646.311193 563.239304 587.045156 C565.034239 584.044872 566.897530 580.731181 566.402033 577.270259 C565.941264 574.051918 563.546598 571.501152 561.269887 569.180244 M1464.293386 819.935633 C1497.970566 806.172664 1531.647745 792.409696 1565.324925 778.646727 C1527.777364 713.340343 1490.229803 648.033959 1452.682242 582.727575 C1425.517636 609.101417 1398.569093 635.697800 1371.840230 662.513154 C1370.762516 663.594356 1369.634603 664.767724 1369.338751 666.265367 C1368.980718 668.077784 1369.926707 669.865747 1370.839944 671.471686 C1397.930332 719.110440 1425.020720 766.749193 1452.111107 814.387947 C1453.835772 817.420790 1456.108607 820.817318 1459.588818 821.063762 C1461.212567 821.178738 1462.786548 820.551439 1464.293387 819.935636 M563.429081 1202.540546 C561.837264 1202.373764 560.279253 1202.989928 558.797240 1203.594360 C526.667196 1216.698493 494.537152 1229.802623 462.407107 1242.906753 C460.852352 1243.540855 459.101399 1244.392524 458.704242 1246.023970 C458.384240 1247.338485 459.083932 1248.663438 459.759011 1249.835881 C496.489225 1313.626989 533.219438 1377.418097 569.949650 1441.209206 C596.840286 1414.560062 623.730921 1387.910918 650.621557 1361.261774 C651.762059 1360.131514 652.962176 1358.889242 653.214996 1357.303583 C653.484974 1355.610305 652.608155 1353.968009 651.761284 1352.477073 C624.510237 1304.501014 597.259192 1256.524954 570.008146 1208.548894 C568.480939 1205.860213 566.504395 1202.862760 563.429083 1202.540543 M1362.413547 1373.326363 C1360.855026 1371.740279 1359.093024 1370.055315 1356.875823 1369.885995 C1355.039269 1369.745745 1353.313885 1370.688603 1351.714050 1371.601361 C1302.898833 1399.451999 1254.083615 1427.302638 1205.268398 1455.153277 C1203.979245 1455.888780 1202.607223 1456.714097 1202.019302 1458.076899 C1201.295413 1459.754878 1201.987016 1461.674088 1202.676620 1463.366446 C1216.008067 1496.083187 1229.339515 1528.799929 1242.670962 1561.516670 C1243.130797 1562.645153 1243.727913 1563.904094 1244.894428 1564.256464 C1245.960842 1564.578594 1247.071083 1564.005086 1248.037432 1563.450852 C1312.248779 1526.623322 1376.460127 1489.795797 1440.671476 1452.968272 C1414.585499 1426.420969 1388.499523 1399.873666 1362.413547 1373.326363 M817.170336 568.526659 C818.632837 567.690436 820.211963 566.715736 820.731090 565.113024 C821.224314 563.590279 820.610204 561.953415 820.004512 560.471808 C806.577385 527.627187 793.150259 494.782566 779.723133 461.937945 C779.296795 460.895063 778.738183 459.728581 777.654449 459.420544 C776.699277 459.149053 775.714933 459.661205 774.853877 460.155817 C710.514503 497.114130 646.175128 534.072438 581.835753 571.030746 C608.207879 597.797520 634.580006 624.564295 660.952132 651.331069 C662.123456 652.519921 663.405754 653.769177 665.049332 654.059039 C666.894188 654.384398 668.695505 653.421057 670.321765 652.491201 C719.271288 624.503020 768.220812 596.514839 817.170336 568.526659 M1004.071055 1522.805014 C1004.215364 1516.381634 1003.121131 1508.183476 996.921742 1506.495808 C943.097887 1491.843273 889.274031 1477.190737 835.450176 1462.538202 C833.644499 1462.046640 831.585110 1461.588609 830.008076 1462.596114 C828.906190 1463.300069 828.317212 1464.561923 827.785603 1465.756535 C812.674808 1499.713079 798.210025 1533.957100 784.401724 1568.463822 C856.847715 1587.834779 929.293706 1607.205737 1001.739696 1626.576695 C1002.516816 1591.986135 1003.293935 1557.395575 1004.071055 1522.805014 M1020.731344 397.296169 C1020.058163 432.193016 1019.384982 467.089862 1018.711802 501.986709 C1018.595283 508.026881 1019.641231 515.726623 1025.470668 517.312471 C1079.290443 531.953677 1133.110217 546.594882 1186.929992 561.236087 C1188.475406 561.656504 1190.139197 562.073929 1191.646239 561.531822 C1193.676424 560.801530 1194.726499 558.615120 1195.571658 556.630005 C1209.337535 524.296590 1223.103413 491.963177 1236.869291 459.629763 C1237.240026 458.758978 1237.618451 457.815927 1237.411726 456.892360 C1237.050014 455.276387 1235.178926 454.580884 1233.579064 454.153514 C1162.629822 435.201070 1091.680583 416.248620 1020.731344 397.296169 M1625.865268 1021.359856 C1589.711117 1020.736819 1553.556966 1020.113783 1517.402815 1019.490747 C1514.417492 1019.439301 1511.146361 1019.483600 1508.858670 1021.402264 C1506.911407 1023.035414 1506.149589 1025.647342 1505.485923 1028.100617 C1490.540699 1083.346356 1475.595476 1138.592095 1460.650252 1193.837834 C1494.333537 1208.154362 1528.016822 1222.470891 1561.700107 1236.787419 C1562.968191 1237.326397 1564.348222 1237.876170 1565.686499 1237.548223 C1567.914242 1237.002307 1568.861599 1234.421167 1569.454410 1232.205441 C1588.258026 1161.923578 1607.061647 1091.641717 1625.865268 1021.359856 M396.844325 1002.901229 C434.093272 1002.943393 471.341644 1003.493150 508.575611 1004.550298 C513.466839 1004.689170 516.054142 998.934455 517.338765 994.212894 C532.203084 939.579828 547.067404 884.946763 561.931725 830.313698 C528.700741 816.071666 495.469757 801.829634 462.238772 787.587603 C460.309736 786.760862 458.108137 785.929222 456.181529 786.761608 C454.038734 787.687399 453.203183 790.232000 452.605232 792.488349 C434.018266 862.625978 415.431296 932.763603 396.844325 1002.901229 M1205.306780 567.817915 C1254.319567 597.392534 1303.332355 626.967153 1352.345142 656.541771 C1355.759426 658.601971 1359.920517 655.622233 1362.771754 652.834366 C1389.087486 627.103471 1415.241969 601.207665 1441.233146 575.148976 C1378.046368 537.198323 1314.859589 499.247670 1251.672810 461.297018 C1235.072761 496.290949 1219.606607 531.822752 1205.306780 567.817915 M661.496695 1369.457323 C636.287614 1394.223220 611.078533 1418.989116 585.869452 1443.755013 C584.471057 1445.128824 582.952473 1446.873802 583.373404 1448.788400 C583.712568 1450.331081 585.190823 1451.308054 586.545566 1452.120193 C646.097697 1487.820402 705.649828 1523.520611 765.201959 1559.220820 C767.122226 1560.371978 769.453641 1561.555124 771.487496 1560.619162 C773.023067 1559.912506 773.813810 1558.229073 774.481616 1556.676213 C788.273457 1524.605789 802.065299 1492.535365 815.857141 1460.464941 C816.374740 1459.261357 816.899494 1457.912874 816.458497 1456.679161 C816.056576 1455.554789 814.964171 1454.852192 813.942782 1454.233715 C766.537749 1425.528982 719.132720 1396.824244 671.727691 1368.119505 C670.167547 1367.174805 668.472243 1366.195790 666.653758 1366.335869 C664.606101 1366.493600 662.961717 1368.018056 661.496694 1369.457322 M1507.067252 1006.066826 C1508.471914 1006.840745 1510.155419 1006.853778 1511.759160 1006.847483 C1549.013767 1006.701198 1586.268374 1006.554917 1623.522980 1006.408636 C1606.267970 936.649219 1589.012959 866.889802 1571.757949 797.130384 C1571.403840 795.698776 1570.965515 794.140486 1569.752814 793.301289 C1568.094927 792.154019 1565.842177 792.873969 1563.972139 793.627478 C1532.026212 806.499702 1500.080286 819.371926 1468.134359 832.244150 C1466.597995 832.863210 1464.968053 833.556441 1464.053955 834.937772 C1462.796856 836.837426 1463.303145 839.351934 1463.855463 841.561895 C1477.012289 894.205631 1490.169115 946.849368 1503.325941 999.493104 C1503.955991 1002.014092 1504.791308 1004.812861 1507.067248 1006.066830 M457.635711 1230.595105 C489.965960 1217.642982 522.296209 1204.690858 554.626458 1191.738734 C556.264554 1191.082480 558.033346 1190.312323 558.855143 1188.750696 C559.703425 1187.138741 559.283583 1185.181502 558.844154 1183.413768 C545.545643 1129.916487 532.247131 1076.419207 518.948619 1022.921927 C518.576558 1021.425196 518.162546 1019.851406 517.079065 1018.753817 C515.472123 1017.125959 512.920818 1017.026438 510.633427 1017.031084 C474.744071 1017.104039 438.854717 1017.176987 402.965363 1017.249936 C401.918963 1017.252063 400.726983 1017.319533 400.063471 1018.128674 C399.363293 1018.982530 399.592867 1020.237484 399.859464 1021.309046 C416.954947 1090.022478 434.050429 1158.735910 451.145910 1227.449342 C451.478185 1228.784886 451.910731 1230.259975 453.097895 1230.956197 C454.456293 1231.752839 456.173892 1231.180740 457.635711 1230.595107 M656.557056 665.867461 C656.273979 663.888514 654.790186 662.326589 653.380931 660.908717 C628.647854 636.024397 603.914776 611.140078 579.181699 586.255758 C578.041205 585.108290 576.664808 583.871038 575.055679 584.038702 C573.382674 584.213022 572.283541 585.813895 571.419758 587.257230 C535.779785 646.809716 500.139812 706.362202 464.499838 765.914688 C463.223337 768.047653 461.919022 770.679562 463.059449 772.888277 C463.833915 774.388209 465.503924 775.158387 467.055925 775.822376 C498.311368 789.194276 529.566811 802.566178 560.822253 815.938080 C562.629170 816.711127 564.678889 817.490731 566.498019 816.746875 C567.972161 816.144086 568.888972 814.692336 569.708465 813.326730 C598.013533 766.159018 626.318603 718.991307 654.623673 671.823596 C655.720273 669.996217 656.858835 667.977146 656.557056 665.867461 M1456.104638 1205.599760 C1426.283946 1254.965557 1396.463254 1304.331354 1366.642562 1353.697151 C1364.582496 1357.107428 1367.527326 1361.275158 1370.294432 1364.141686 C1395.636952 1390.394715 1421.662509 1415.988389 1448.335903 1440.888084 C1486.267258 1377.661430 1524.198612 1314.434776 1562.129967 1251.208122 C1527.000567 1235.517824 1491.654290 1220.313101 1456.104638 1205.599760 M1230.023622 1565.392256 C1217.395442 1533.789119 1204.767262 1502.185982 1192.139082 1470.582844 C1191.138478 1468.078746 1189.883599 1465.314763 1187.362079 1464.358910 C1185.511255 1463.657307 1183.446514 1464.132295 1181.526590 1464.613636 C1128.541538 1477.897437 1075.556487 1491.181237 1022.571435 1504.465038 C1020.825884 1504.902662 1018.967680 1505.406916 1017.782037 1506.760694 C1016.368236 1508.374991 1016.301167 1510.729183 1016.307976 1512.875049 C1016.422089 1548.820224 1016.536196 1584.765398 1016.650303 1620.710572 C1016.653049 1621.575336 1016.717197 1622.569944 1017.407517 1623.090793 C1018.073946 1623.593614 1019.011580 1623.415974 1019.821896 1623.215112 C1088.831396 1606.108851 1157.840897 1589.002593 1226.850397 1571.896335 C1228.198409 1571.562186 1229.688661 1571.125557 1230.386922 1569.925048 C1231.177547 1568.565739 1230.607119 1566.852509 1230.023622 1565.392256 M998.339393 519.911296 C1000.715912 519.319539 1003.291848 518.597673 1004.725072 516.611751 C1006.004640 514.838723 1006.051575 512.489750 1006.048799 510.303221 C1006.002029 473.531187 1005.955267 436.759155 1005.908505 399.987122 C935.735739 417.298042 865.562974 434.608962 795.390208 451.919882 C794.093779 452.239698 792.665409 452.652728 791.973118 453.794545 C791.154129 455.145329 791.727735 456.876275 792.317055 458.341902 C805.267861 490.550266 818.218667 522.758631 831.169472 554.966995 C831.864566 556.695676 832.684071 558.565415 834.342374 559.414841 C836.006043 560.267016 838.008879 559.833858 839.822718 559.382210 C892.661610 546.225238 945.500501 533.068267 998.339393 519.911296 M725.119901 1286.905040 C698.310531 1249.709005 674.840930 1210.106769 655.085606 1168.730271 C653.543787 1165.501011 648.763061 1166.386799 645.464770 1167.774821 C620.835425 1178.139630 596.206080 1188.504433 571.576735 1198.869237 C600.018666 1250.712286 629.197066 1302.151295 659.100160 1353.165510 C681.106741 1331.078687 703.113321 1308.991864 725.119901 1286.905040 M1450.995662 824.968406 C1422.556955 773.427374 1393.555327 722.196945 1363.997695 671.289338 C1343.009578 691.093787 1322.456287 711.359048 1302.357627 732.065596 C1300.039946 734.453375 1297.604015 738.091512 1299.584703 740.765463 C1325.901178 776.292994 1348.505123 814.568805 1366.909794 854.768686 C1368.557140 858.366853 1373.872248 857.411660 1377.519979 855.877185 C1402.011873 845.574254 1426.503767 835.271330 1450.995662 824.968406 M673.040350 663.099305 C691.510208 681.715539 709.980065 700.331773 728.449923 718.948008 C731.782924 722.307424 736.947519 725.864876 740.734477 723.027002 C775.929928 696.652115 814.066154 674.204466 854.208655 656.234110 C857.794237 654.628974 856.858623 649.337930 855.335332 645.716818 C845.569631 622.502174 835.803933 599.287529 826.038234 576.072884 C825.542894 574.895381 824.920057 573.593819 823.711770 573.179188 C822.494683 572.761537 821.195900 573.418861 820.077701 574.055543 C771.301700 601.827706 722.525699 629.599869 673.749698 657.372032 C672.726296 657.954739 671.596194 658.683122 671.398343 659.844051 C671.185759 661.091435 672.149137 662.201029 673.040350 663.099305 M1195.438650 1446.101862 C1196.157892 1447.836031 1197.095531 1449.773238 1198.901276 1450.286985 C1200.495116 1450.740441 1202.139142 1449.891926 1203.579162 1449.071996 C1251.965030 1421.521602 1300.350898 1393.971213 1348.736767 1366.420823 C1349.809814 1365.809842 1351.007135 1365.016325 1351.126036 1363.787264 C1351.234984 1362.661087 1350.378565 1361.697489 1349.582674 1360.893309 C1331.651228 1342.775124 1313.719782 1324.656938 1295.788335 1306.538752 C1291.689879 1302.397614 1285.336859 1298.009834 1280.669892 1301.497782 C1245.428925 1327.835858 1207.272083 1350.269522 1167.121357 1368.256711 C1164.546914 1369.410040 1165.205357 1373.206178 1166.286086 1375.811931 C1176.003607 1399.241908 1185.721129 1422.671885 1195.438650 1446.101862 M1018.649640 526.933685 C1018.371391 551.684441 1018.093142 576.435197 1017.814893 601.185953 C1017.761770 605.911347 1018.010418 611.319432 1021.672618 614.306145 C1023.838680 616.072674 1026.743966 616.560485 1029.503543 617.004526 C1071.383618 623.743390 1112.600209 634.599058 1152.366303 649.364244 C1155.418424 650.497500 1157.965842 646.868498 1159.216015 643.862374 C1169.225907 619.792900 1179.235799 595.723427 1189.245692 571.653954 C1189.472731 571.108025 1189.704146 570.516001 1189.566591 569.940967 C1189.333732 568.967536 1188.212482 568.544553 1187.248210 568.276281 C1134.090042 553.487162 1080.931875 538.698040 1027.773708 523.908918 C1024.179515 522.908978 1018.691579 523.203221 1018.649637 526.933683 M866.224714 1373.145906 C855.617738 1398.733789 845.010762 1424.321671 834.403786 1449.909554 C833.810815 1451.340016 833.229152 1453.025880 834.005882 1454.365480 C834.661368 1455.495971 836.044779 1455.937134 837.304114 1456.286055 C890.191487 1470.939391 943.078858 1485.592727 995.966230 1500.246063 C998.461032 1500.937290 1001.661291 1501.402569 1003.169561 1499.298536 C1003.930052 1498.237652 1003.968361 1496.839045 1003.977807 1495.533775 C1004.151276 1471.561012 1004.324746 1447.588249 1004.498215 1423.615486 C1004.534528 1418.597172 1004.264459 1412.878503 1000.415176 1409.658593 C998.037815 1407.669941 994.808253 1407.127323 991.748125 1406.635188 C948.919645 1399.747479 906.792249 1388.508011 866.224714 1373.145907 M1407.929994 1020.151735 C1401.332361 1066.886904 1389.446186 1112.873441 1372.571078 1156.952183 C1398.173586 1168.005988 1423.904168 1178.763148 1449.755918 1189.220777 C1450.883775 1189.677021 1452.152428 1190.135426 1453.281457 1189.682092 C1454.638189 1189.137326 1455.183844 1187.543608 1455.572161 1186.134104 C1470.803766 1130.846398 1486.035377 1075.558695 1501.266987 1020.270991 C1470.203153 1018.162807 1438.999113 1018.122937 1407.929994 1020.151735 M599.809462 1005.202867 C606.264247 1005.260058 614.694875 1003.734187 615.605431 997.343694 C621.662343 954.834822 632.526591 913.012785 647.924654 872.930495 C649.788109 868.079783 643.976510 863.990848 639.170727 862.014407 C617.344902 853.038274 595.519080 844.062136 573.693258 835.085999 C572.031022 834.402384 570.029145 833.745682 568.541271 834.753942 C567.473531 835.477498 567.059752 836.826177 566.718459 838.070010 C551.501303 893.528607 536.358951 949.007730 521.291458 1004.507176 C547.464126 1004.739073 573.636794 1004.970970 599.809462 1005.202867 M1202.202972 573.805330 C1192.137230 596.724650 1182.071489 619.643969 1172.005748 642.563289 C1169.827751 647.522506 1168.422026 654.794236 1173.328336 657.088931 C1212.588684 675.451092 1249.976582 697.813860 1284.725432 723.718711 C1288.156804 726.276758 1292.865354 723.237385 1295.986655 720.309006 C1315.334176 702.157295 1333.760036 683.023276 1351.169538 663.005276 C1301.514016 633.271961 1251.858494 603.538646 1202.202972 573.805330 M820.063490 1449.935049 C832.156034 1423.624039 843.768687 1397.092473 854.893726 1370.357995 C813.996261 1350.522656 774.814686 1327.150948 737.929531 1300.589158 C734.220997 1297.918563 729.233232 1301.180172 725.905907 1304.312936 C706.844655 1322.259634 688.653970 1341.130906 671.419204 1360.838215 C720.967299 1390.537159 770.515394 1420.236104 820.063490 1449.935049 M1448.934396 1202.887644 C1425.746872 1191.975716 1402.294651 1181.626270 1378.605310 1171.851477 C1374.615489 1170.205180 1368.842361 1169.194167 1367.011161 1173.102577 C1347.983491 1213.714290 1324.900712 1252.424780 1298.217500 1288.471547 C1296.845807 1290.324590 1298.586381 1292.832176 1300.227214 1294.451737 C1318.546607 1312.533629 1336.865998 1330.615522 1355.185390 1348.697414 C1356.251208 1349.749415 1357.523010 1350.880443 1359.014815 1350.749323 C1360.641888 1350.606310 1361.716973 1349.046730 1362.553948 1347.644129 C1391.347430 1299.391966 1420.140913 1251.139805 1448.934396 1202.887644 M655.785889 850.321750 C674.037421 810.740307 696.478185 773.092157 722.612287 738.209243 C725.741659 734.032264 721.759807 728.350155 718.012305 724.717477 C699.695699 706.962142 681.379100 689.206802 663.062501 671.451462 C633.175954 721.328352 603.289408 771.205241 573.402862 821.082130 C596.347979 831.726872 619.495811 841.934651 642.829577 851.698067 C647.285119 853.562375 653.763436 854.707771 655.785891 850.321751 M1490.780844 1006.339157 C1493.777835 1006.316035 1497.939578 1004.917789 1497.210744 1002.010678 C1483.789089 948.475901 1470.367438 894.941125 1456.945786 841.406350 C1456.640050 840.186865 1456.212737 838.813925 1455.071931 838.285549 C1454.036178 837.805829 1452.827249 838.223093 1451.765358 838.641787 C1429.009619 847.614184 1406.253880 856.586581 1383.498141 865.558978 C1379.604126 867.094355 1374.873998 870.333027 1376.339700 874.253800 C1391.950089 916.011797 1403.002471 959.471945 1409.237442 1003.614211 C1409.615977 1006.294160 1413.150196 1006.938082 1415.856665 1006.917201 C1440.831392 1006.724520 1465.806118 1006.531838 1490.780844 1006.339157 M604.996366 1016.758943 C579.589725 1017.089148 554.183083 1017.419353 528.776442 1017.749558 C527.764912 1017.762704 526.659893 1017.809869 525.898484 1018.475920 C524.709208 1019.516256 524.999485 1021.405409 525.390651 1022.936312 C539.344018 1077.545251 553.297383 1132.154190 567.250748 1186.763129 C591.448240 1177.118163 615.645732 1167.473196 639.843224 1157.828229 C643.207952 1156.487070 647.288124 1153.700515 646.057371 1150.293853 C630.911831 1108.372010 619.936324 1064.944840 613.345323 1020.860980 C612.842255 1017.496213 608.398245 1016.714729 604.996367 1016.758942 M1157.359187 1382.973810 C1156.015406 1379.680779 1153.245740 1375.703799 1149.907729 1376.931597 C1107.430168 1392.555835 1063.269567 1403.599756 1018.437782 1409.810311 C1016.570377 1410.069002 1016.127296 1412.537057 1016.151151 1414.422144 C1016.480532 1440.449587 1016.809912 1466.477030 1017.139293 1492.504473 C1017.155220 1493.763047 1017.203956 1495.120452 1017.974943 1496.115359 C1019.356895 1497.898668 1022.102981 1497.521382 1024.290337 1496.968702 C1078.060891 1483.382381 1131.831445 1469.796067 1185.601999 1456.209753 C1176.661885 1431.618427 1167.245259 1407.200336 1157.359187 1382.973810 M1006.667765 606.806180 C1006.144924 579.627019 1005.622084 552.447859 1005.099243 525.268698 C951.101979 538.844686 897.104715 552.420675 843.107451 565.996663 C840.820916 566.571544 838.134643 567.535826 837.621384 569.836978 C837.342504 571.087343 837.827543 572.367686 838.303892 573.556917 C847.376320 596.206653 856.448744 618.856389 865.521169 641.506125 C866.724396 644.510039 869.232127 648.151954 872.266479 647.027696 C914.511451 631.375506 958.458381 620.321639 1003.081462 614.124114 C1006.040157 613.713193 1006.725217 609.792722 1006.667765 606.806180 M1282.787357 731.027899 C1282.802401 729.804111 1281.697546 728.899832 1280.697192 728.194726 C1244.255184 702.508496 1205.609116 679.950355 1165.323102 660.849588 C1154.493593 683.520448 1144.374739 706.530771 1134.986401 729.835391 C1134.356982 731.397794 1133.722383 733.119048 1134.231551 734.724670 C1134.694659 736.185030 1135.996022 737.193354 1137.230021 738.101299 C1163.240478 757.239111 1190.733098 774.361976 1219.380451 789.265964 C1220.974884 790.095479 1222.706976 790.942803 1224.486085 790.687690 C1226.389323 790.414777 1227.870906 788.953014 1229.205809 787.569240 C1246.605727 769.532305 1264.005646 751.495369 1281.405565 733.458434 C1282.069274 732.770427 1282.775605 731.983791 1282.787360 731.027900 M791.860742 1237.513929 C774.223023 1256.140039 756.585304 1274.766150 738.947585 1293.392261 C776.025482 1320.250450 815.664291 1343.571587 857.150985 1362.936168 C867.991415 1340.134131 878.234174 1317.047955 887.865198 1293.709334 C888.384491 1292.450946 888.912320 1291.100343 888.650258 1289.764481 C888.316774 1288.064583 886.817382 1286.880262 885.418107 1285.859042 C859.606207 1267.021043 832.443185 1250.034738 804.206773 1235.073810 C802.404556 1234.118914 800.472941 1233.144805 798.439691 1233.305136 C795.781302 1233.514767 793.694266 1235.577653 791.860739 1237.513924 M654.954162 1150.285800 C656.595668 1151.142459 658.584306 1150.460602 660.302655 1149.770903 C681.854189 1141.120680 703.405724 1132.470458 724.957259 1123.820236 C726.866696 1123.053838 729.147152 1121.680480 728.826174 1119.648169 C723.675545 1087.036713 716.395251 1054.761777 707.047054 1023.097174 C706.412210 1020.946801 705.625067 1018.607580 703.708082 1017.444697 C702.233840 1016.550392 700.404248 1016.556612 698.680279 1016.589753 C673.724639 1017.069487 648.768999 1017.549221 623.813360 1018.028955 C622.834890 1018.047765 621.731175 1018.122740 621.095885 1018.867162 C620.446022 1019.628661 620.566757 1020.759574 620.726345 1021.747873 C627.567100 1064.111486 638.161404 1105.868280 652.344536 1146.369026 C652.876324 1147.887576 653.527749 1149.541393 654.954161 1150.285800 M1318.394352 1006.477320 C1319.561945 1007.251750 1321.059897 1007.255263 1322.460779 1007.231899 C1349.058609 1006.788291 1375.656439 1006.344684 1402.254269 1005.901077 C1395.604223 962.099949 1384.810902 918.928813 1370.065317 877.151670 C1369.685443 876.075412 1369.272195 874.952947 1368.422882 874.190514 C1366.517639 872.480168 1363.533127 873.350243 1361.159757 874.310634 C1340.186618 882.797513 1319.213478 891.284386 1298.240338 899.771259 C1296.705810 900.392212 1295.018725 901.160777 1294.406476 902.698797 C1294.005107 903.707077 1294.161691 904.840241 1294.326808 905.912835 C1299.345728 938.515313 1306.605849 970.772576 1316.038960 1002.381554 C1316.499132 1003.923520 1317.053346 1005.587870 1318.394352 1006.477320 M660.320687 858.916268 C682.660844 868.532448 705.001002 878.148628 727.341160 887.764808 C730.122218 888.961897 733.904946 889.926569 735.723002 887.505417 C755.583810 861.056093 773.186000 832.911356 788.275255 803.477829 C789.141895 801.787338 790.025141 799.959029 789.777436 798.075557 C789.498694 795.956097 787.867489 794.304904 786.325845 792.823978 C769.051587 776.230070 751.777330 759.636162 734.503073 743.042254 C733.544812 742.121734 732.457416 741.144179 731.129307 741.102410 C729.359301 741.046744 728.030799 742.637145 727.001256 744.077998 C701.228847 780.146742 678.870013 818.653458 660.320687 858.916268 M1289.010718 1134.790138 C1287.638866 1135.216211 1286.691874 1136.437789 1285.840566 1137.594850 C1266.435753 1163.969073 1249.035062 1191.817469 1233.837952 1220.820819 C1232.966189 1222.484560 1232.075187 1224.332434 1232.488024 1226.164802 C1232.832957 1227.695769 1234.019283 1228.873851 1235.152010 1229.960023 C1252.701365 1246.788073 1270.250720 1263.616124 1287.800074 1280.444175 C1288.931994 1281.529572 1290.257833 1282.690880 1291.823467 1282.600773 C1293.541851 1282.501870 1294.766623 1280.953166 1295.749932 1279.540464 C1320.924193 1243.372920 1343.185696 1205.178561 1362.248068 1165.448716 C1339.597185 1154.896208 1316.681819 1144.911418 1293.530736 1135.506883 C1292.087368 1134.920551 1290.498526 1134.328050 1289.010718 1134.790136 M1006.663538 702.735842 C1006.235066 675.465409 1005.806594 648.194976 1005.378122 620.924543 C961.481666 627.778709 918.224495 638.721373 876.349044 653.564721 C874.930218 654.067644 873.383965 654.684185 872.698078 656.024168 C871.920612 657.543066 872.549660 659.371250 873.184910 660.954903 C881.762054 682.337373 890.339197 703.719843 898.916340 725.102313 C899.752669 727.187247 901.257686 729.678787 903.474765 729.316903 C936.511299 723.924481 969.226118 716.561774 1001.387533 707.280924 C1003.795130 706.586162 1006.702904 705.241371 1006.663540 702.735843 M1024.727531 1314.816639 C1020.743026 1315.714338 1015.822671 1317.726204 1015.895603 1321.809930 C1016.377670 1348.802022 1016.859735 1375.794113 1017.341801 1402.786204 C1061.187129 1396.132745 1104.375996 1385.160610 1146.080442 1370.080142 C1147.713993 1369.489445 1149.545368 1368.693090 1150.074582 1367.038598 C1150.477021 1365.780431 1149.977055 1364.430136 1149.483730 1363.204751 C1140.772576 1341.566911 1132.061424 1319.929071 1123.350272 1298.291231 C1122.777234 1296.867847 1122.124595 1295.347732 1120.813097 1294.551262 C1119.246209 1293.599694 1117.247358 1293.972145 1115.458985 1294.375061 C1085.215167 1301.188920 1054.971349 1308.002780 1024.727531 1314.816639 M1295.518128 888.022195 C1318.184639 879.071768 1340.851150 870.121341 1363.517662 861.170915 C1345.187624 820.831366 1322.783616 782.344334 1296.756960 746.485129 C1295.701645 745.031128 1294.439346 743.457919 1292.656215 743.238262 C1290.664848 742.992953 1288.945200 744.530418 1287.531671 745.954375 C1270.850636 762.758477 1254.169601 779.562580 1237.488566 796.366682 C1235.748833 798.119250 1233.916075 800.840295 1235.429784 802.791409 C1255.722968 828.948529 1273.228307 857.267094 1287.553904 887.113124 C1288.833438 889.778912 1292.767822 889.108223 1295.518129 888.022199 M1004.770600 1327.220194 C1004.780598 1325.562080 1004.777976 1323.842313 1004.085761 1322.335568 C1002.441448 1318.756390 997.847273 1317.890335 993.936128 1317.424266 C963.370669 1313.781954 933.258270 1306.353632 904.505555 1295.362952 C901.436038 1294.189634 898.819183 1297.810819 897.509704 1300.824764 C888.915176 1320.606302 880.320644 1340.387837 871.726112 1360.169371 C870.686111 1362.563081 869.684822 1365.480223 871.171878 1367.625011 C872.076294 1368.929452 873.665792 1369.540549 875.160667 1370.074296 C916.989688 1385.009388 960.338990 1395.682865 1004.320446 1401.876054 C1004.470497 1376.990767 1004.620548 1352.105481 1004.770600 1327.220194 M788.636018 1224.068156 C768.008020 1196.716325 749.950464 1167.426817 734.778690 1136.711118 C733.468571 1134.058743 729.545566 1134.748533 726.796563 1135.841462 C705.773898 1144.199534 684.751232 1152.557600 663.728567 1160.915666 C662.422078 1161.435092 660.982344 1162.083254 660.469121 1163.392192 C659.967060 1164.672662 660.545044 1166.098159 661.119104 1167.348009 C679.818344 1208.060251 702.943981 1246.737631 729.957141 1282.478887 C749.516767 1263.008644 769.076392 1243.538400 788.636018 1224.068156 M799.773988 789.325229 C826.577330 767.911018 855.961998 749.730789 887.088429 735.303980 C889.477198 734.196808 888.901342 730.679971 887.942252 728.227993 C879.920756 707.720556 871.899263 687.213119 863.877771 666.705682 C863.011888 664.491998 861.844968 661.997853 859.546058 661.393563 C857.848969 660.947478 856.092788 661.708981 854.506351 662.458857 C814.486094 681.375696 776.388109 704.356378 740.988198 730.932945 C759.985359 750.987085 779.592710 770.463187 799.773988 789.325229 M1018.129485 695.534605 C1018.129051 698.250623 1018.219935 701.224743 1019.999425 703.276613 C1021.862060 705.424354 1024.966408 705.871897 1027.789018 706.211126 C1058.752429 709.932374 1089.254003 717.480521 1118.379346 728.629280 C1121.086526 729.665550 1123.397347 726.473858 1124.555379 723.816484 C1133.638631 702.972826 1142.721884 682.129170 1151.805138 661.285514 C1152.357446 660.018113 1152.920251 658.618583 1152.530617 657.292108 C1152.002371 655.493742 1150.005052 654.635064 1148.235886 654.016020 C1106.020495 639.244562 1062.392190 628.514061 1018.141226 622.018882 C1018.137312 646.524123 1018.133398 671.029364 1018.129485 695.534605 M1167.192373 1361.701390 C1207.474958 1342.767482 1245.846548 1319.770704 1281.536156 1293.173121 C1264.374233 1274.531298 1246.518690 1256.528048 1228.018881 1239.213133 C1225.689318 1237.032776 1222.119601 1234.777134 1219.634719 1236.778679 C1194.043508 1257.392135 1165.833961 1274.751417 1135.899424 1288.306787 C1133.130873 1289.560481 1133.788743 1293.632407 1134.898950 1296.461552 C1143.090058 1317.334942 1151.281161 1338.208333 1159.472265 1359.081723 C1159.965025 1360.337424 1160.535146 1361.686003 1161.703353 1362.360460 C1163.366761 1363.320818 1165.454083 1362.518434 1167.192373 1361.701391 M1360.362620 1151.868419 C1361.914423 1152.535849 1363.605994 1153.216958 1365.246010 1152.812110 C1367.750026 1152.193979 1368.965545 1149.420752 1369.810095 1146.983763 C1384.206435 1105.442417 1394.703343 1062.550655 1401.117894 1019.055925 C1376.457083 1018.827728 1351.795081 1018.728211 1327.133232 1018.757381 C1323.452435 1018.761734 1318.658768 1019.676601 1318.163689 1023.323953 C1313.543080 1057.365512 1305.437185 1090.932992 1294.013740 1123.331794 C1316.130033 1132.844002 1338.246327 1142.356211 1360.362620 1151.868419 M662.186554 872.039953 C660.514499 871.316871 658.684566 870.579174 656.921874 871.039104 C654.256548 871.734555 653.025622 874.736927 652.188556 877.361224 C643.097319 905.863384 635.147476 934.729588 628.364477 963.867442 C625.216315 977.391058 622.302075 991.270146 623.878646 1005.065563 C647.778240 1005.052374 671.677834 1005.039184 695.577427 1005.025995 C699.336368 1005.023920 704.244535 1004.076824 704.713762 1000.347284 C708.983426 966.410644 717.025529 932.950005 728.644348 900.779701 C706.491750 891.199785 684.339152 881.619869 662.186554 872.039953 M801.444393 1111.079367 C800.617683 1109.883663 799.689644 1108.611064 798.301185 1108.180553 C796.881875 1107.740483 795.365944 1108.298263 793.985604 1108.848500 C776.955183 1115.637259 759.924762 1122.426016 742.894341 1129.214774 C741.527094 1129.759793 740.010878 1130.453948 739.523729 1131.842867 C739.069958 1133.136639 739.690254 1134.536876 740.301901 1135.763921 C755.100076 1165.450915 772.871912 1193.654638 793.265148 1219.816049 C809.448362 1203.127309 825.836678 1186.637458 842.425146 1170.351478 C828.764895 1150.594108 815.104644 1130.836737 801.444393 1111.079367 M887.825481 741.076282 C858.117586 755.855065 829.892991 773.613555 803.712616 793.998830 C818.982956 809.454010 834.253296 824.909191 849.523635 840.364371 C850.299803 841.149933 851.177483 841.984417 852.278920 842.064295 C853.309666 842.139044 854.251231 841.529531 855.103897 840.945592 C874.492313 827.667614 893.880730 814.389639 913.269147 801.111663 C915.949434 799.276093 915.033840 795.166917 913.824982 792.151636 C907.431804 776.205040 901.038631 760.258443 894.645458 744.311846 C893.938343 742.548078 892.928765 740.530726 891.051720 740.234770 C889.935074 740.058707 888.837600 740.572783 887.825481 741.076282 M1174.654071 1185.035718 C1173.450275 1183.811278 1172.107189 1182.515941 1170.401504 1182.318407 C1168.599910 1182.109768 1166.926828 1183.183335 1165.431474 1184.209583 C1146.597231 1197.135376 1127.762987 1210.061166 1108.928743 1222.986956 C1107.638871 1223.872184 1106.174279 1225.274205 1106.758124 1226.725593 C1113.830350 1244.306479 1120.902575 1261.887366 1127.974800 1279.468252 C1128.731552 1281.349467 1129.843248 1283.515668 1131.858015 1283.744475 C1132.950092 1283.868496 1134.002974 1283.356764 1134.981551 1282.856365 C1164.450417 1267.787328 1192.579726 1250.099860 1218.929611 1230.070544 C1204.171098 1215.058935 1189.412585 1200.047327 1174.654071 1185.035718 M1182.679407 851.189119 C1181.953552 851.918260 1181.186690 852.729469 1181.072154 853.751914 C1180.949515 854.846708 1181.607861 855.859718 1182.236739 856.764221 C1194.997475 875.117687 1207.758208 893.471153 1220.518942 911.824620 C1221.576217 913.345274 1222.789209 914.976840 1224.588202 915.417115 C1226.120135 915.792026 1227.705266 915.203334 1229.172315 914.624419 C1246.340408 907.849682 1263.508501 901.074946 1280.676594 894.300210 C1281.713554 893.891014 1282.873922 893.353226 1283.194266 892.285468 C1283.454222 891.418995 1283.058584 890.505471 1282.669301 889.688886 C1268.210876 859.359970 1250.170624 830.740477 1229.043294 804.615295 C1213.588665 820.139903 1198.134036 835.664511 1182.679407 851.189119 M925.824933 1234.602394 C918.200559 1252.497807 910.576184 1270.393219 902.951810 1288.288632 C935.424867 1300.893495 969.602731 1309.097965 1004.259101 1312.607669 C1004.487309 1291.427077 1004.715517 1270.246485 1004.943725 1249.065893 C1004.963182 1247.260016 1004.939081 1245.311646 1003.867903 1243.857635 C1002.368056 1241.821749 999.481828 1241.561589 996.956078 1241.439289 C977.064677 1240.476121 957.301788 1236.891222 938.339415 1230.806492 C934.822828 1229.678073 930.484157 1228.632960 927.836161 1231.207416 C926.886454 1232.130758 926.344112 1233.383809 925.824931 1234.602393 M1120.031691 735.314505 C1087.411086 723.149137 1053.261777 715.089390 1018.644130 711.385526 C1017.929928 732.573464 1017.740311 753.779082 1018.075511 774.976403 C1018.100593 776.562526 1018.157527 778.246216 1019.034844 779.567855 C1020.455294 781.707701 1023.388523 782.077865 1025.949264 782.275928 C1048.057123 783.985880 1069.976840 788.117469 1091.190213 794.573019 C1093.284970 795.210485 1094.944346 792.808380 1095.820042 790.801510 C1103.890589 772.305840 1111.961140 753.810173 1120.031691 735.314505 M1287.660797 1120.373501 C1300.143969 1087.939342 1308.159995 1053.789350 1311.411982 1019.188355 C1290.706579 1018.928030 1270.001176 1018.667705 1249.295774 1018.407380 C1245.982137 1018.365718 1241.578639 1019.258355 1241.355078 1022.564704 C1239.775163 1045.930777 1235.522606 1069.115086 1228.706881 1091.520786 C1227.843709 1094.358337 1231.129388 1096.584475 1233.863132 1097.734867 C1251.795689 1105.281076 1269.728243 1112.827289 1287.660797 1120.373501 M733.078628 906.619211 C722.512713 936.997562 715.207913 968.508979 711.330143 1000.437738 C710.947856 1003.585412 715.270962 1004.821071 718.441650 1004.848046 C736.690755 1005.003299 754.939860 1005.158553 773.188965 1005.313807 C776.563928 1005.342520 781.044550 1004.416012 781.260188 1001.047823 C782.768120 977.494464 787.022323 954.118070 793.909066 931.543586 C794.607759 929.253296 791.957246 927.453485 789.751273 926.522203 C773.274061 919.566135 756.796850 912.610065 740.319640 905.653995 C737.788018 904.585238 733.981358 904.023748 733.078628 906.619210 M1106.665156 798.314563 C1107.042274 799.673862 1108.290178 800.578175 1109.456166 801.372141 C1128.899598 814.611904 1148.343030 827.851667 1167.786462 841.091431 C1168.757507 841.752652 1169.797233 842.437552 1170.971109 842.483998 C1172.687177 842.551892 1174.120421 841.263149 1175.345471 840.059508 C1189.930608 825.729206 1204.515748 811.398908 1219.100888 797.068610 C1188.430643 780.244965 1158.805016 761.517222 1130.451288 741.029054 C1122.765144 758.811160 1115.079000 776.593265 1107.392856 794.375370 C1106.852078 795.626474 1106.300782 797.001197 1106.665156 798.314563 M917.219880 1224.917891 C896.341766 1210.912008 875.463653 1196.906125 854.585539 1182.900242 C853.641657 1182.267048 852.632115 1181.611591 851.496275 1181.570175 C849.830606 1181.509447 848.441275 1182.759933 847.252390 1183.928134 C832.987604 1197.944800 818.722815 1211.961463 804.458027 1225.978125 C833.854784 1244.628040 863.251542 1263.277955 892.648300 1281.927870 C900.838826 1262.924543 909.029353 1243.921217 917.219880 1224.917891 M796.984593 804.562492 C779.805753 835.185264 760.976080 864.881857 740.604623 893.480291 C758.423789 901.032430 776.242954 908.584569 794.062120 916.136709 C796.336502 917.100640 799.579384 917.764929 800.760735 915.595508 C813.010824 893.099415 827.422733 871.781185 843.733279 852.030114 C828.150383 836.207573 812.567488 820.385032 796.984593 804.562492 M1229.286256 1108.076316 C1227.429635 1107.324822 1225.318062 1106.578721 1223.487897 1107.392525 C1222.013087 1108.048316 1221.132063 1109.549303 1220.339346 1110.955264 C1208.549464 1131.865857 1195.005501 1151.787095 1179.896423 1170.441047 C1178.910971 1171.657703 1180.071433 1173.399825 1181.176745 1174.508722 C1196.151353 1189.531919 1211.125961 1204.555117 1226.100569 1219.578314 C1242.286810 1188.694244 1260.892297 1159.078484 1281.690426 1131.091738 C1264.451526 1122.911664 1246.973525 1115.235489 1229.286256 1108.076316 M795.176874 1095.482002 C787.796417 1071.323135 782.736627 1046.455901 780.089795 1021.333873 C781.140457 1020.030209 782.191119 1018.726545 783.241782 1017.422881 C760.967631 1017.447022 738.693481 1017.471164 716.419330 1017.495306 C715.874478 1017.495896 715.311051 1017.500254 714.813343 1017.721954 C713.086816 1018.491026 713.354549 1020.992411 713.902224 1022.801393 C723.279781 1053.775498 730.418327 1085.427228 735.243756 1117.427993 C737.656484 1118.596142 740.508920 1117.595799 742.993948 1116.590579 C760.388256 1109.554386 777.782565 1102.518194 795.176874 1095.482002 M1242.114435 1003.281129 C1242.301028 1005.729458 1245.541940 1006.404592 1247.997369 1006.403281 C1268.592230 1006.392253 1289.187090 1006.381229 1309.781949 1006.370206 C1300.149233 974.357415 1292.807773 941.655423 1287.832297 908.597102 C1287.389765 905.656805 1283.051352 905.946379 1280.290538 907.050501 C1264.740939 913.269195 1249.191340 919.487889 1233.641741 925.706583 C1230.793183 926.845796 1227.347259 929.139439 1228.276593 932.063207 C1235.618658 955.161871 1240.272577 979.113761 1242.114435 1003.281129 M1089.742757 1229.155510 C1066.194909 1237.140399 1041.459399 1241.612936 1016.606395 1242.379622 C1016.687050 1265.026955 1016.767706 1287.674288 1016.848361 1310.321621 C1050.221496 1300.323503 1084.263681 1292.559283 1118.671593 1287.098143 C1112.059780 1270.328682 1105.447967 1253.559222 1098.836154 1236.789762 C1097.224581 1232.702348 1093.903695 1227.744571 1089.742759 1229.155505 M930.896594 794.777247 C954.503605 787.542185 978.917089 782.941955 1003.538321 781.089375 C1005.319973 780.955318 1005.808864 778.594454 1005.803974 776.807771 C1005.749150 756.786115 1005.694330 736.764460 1005.639511 716.742805 C1005.633308 714.477370 1002.271023 714.341106 1000.102278 714.995918 C968.541176 724.525208 936.295223 731.785453 903.695574 736.702095 C910.775593 754.373805 917.855612 772.045514 924.935631 789.717224 C926.006530 792.390185 928.143486 795.621018 930.896593 794.777250 M882.940120 1146.389899 C875.137991 1155.186905 867.335863 1163.983911 859.533734 1172.780917 C858.882951 1173.514683 858.191063 1174.360782 858.251419 1175.339703 C858.317057 1176.404316 859.239220 1177.186633 860.088296 1177.832216 C877.784710 1191.287430 896.358021 1203.589164 915.651270 1214.633456 C916.944837 1215.373950 918.478912 1216.129441 919.859420 1215.567438 C921.033012 1215.089670 921.650020 1213.827122 922.163512 1212.668715 C927.328818 1201.016095 932.494125 1189.363475 937.659432 1177.710855 C938.803414 1175.130101 939.502663 1171.288541 936.900714 1170.193622 C921.320104 1163.637193 906.965055 1154.181636 894.789724 1142.455448 C891.418696 1139.208776 886.045629 1142.888395 882.940119 1146.389897 M1085.376650 853.484906 C1101.052949 860.128633 1115.507687 869.642234 1127.809662 881.412826 C1131.195720 884.652622 1136.565418 880.958682 1139.669753 877.448016 C1147.571358 868.512143 1155.472966 859.576273 1163.374573 850.640403 C1163.849940 850.102813 1164.352271 849.498722 1164.361139 848.781159 C1164.372549 847.857825 1163.578768 847.150789 1162.851713 846.581521 C1144.894746 832.521620 1125.859475 819.839244 1105.968242 808.682530 C1105.266940 808.289180 1104.521874 807.886418 1103.717905 807.899948 C1101.969128 807.929378 1100.909174 809.787515 1100.209806 811.390629 C1095.038449 823.244573 1089.867092 835.098517 1084.695735 846.952460 C1083.715697 849.198933 1083.120005 852.528524 1085.376649 853.484907 M1143.254522 890.433278 C1142.067061 891.619499 1140.786025 893.057945 1140.984812 894.724578 C1141.089088 895.598816 1141.595454 896.365605 1142.087663 897.095601 C1151.056991 910.397999 1160.026317 923.700397 1168.995644 937.002795 C1169.320657 937.484821 1169.688853 937.999699 1170.245890 938.166108 C1170.791938 938.329233 1171.371490 938.112852 1171.900009 937.899671 C1186.995883 931.810660 1202.091758 925.721651 1217.187634 919.632641 C1205.360800 897.900060 1191.170557 877.454674 1174.947739 858.773152 C1164.383333 869.326528 1153.818928 879.879903 1143.254522 890.433278 M855.620725 1087.975475 C854.284909 1085.314512 850.338369 1086.047652 847.583973 1087.178331 C833.467828 1092.973011 819.351682 1098.767691 805.235537 1104.562370 C816.752023 1125.016086 830.110946 1144.431950 845.097665 1162.498003 C845.758808 1163.294992 846.574098 1164.161041 847.609069 1164.127317 C848.464836 1164.099432 849.158517 1163.456609 849.765741 1162.852959 C859.276520 1153.398157 868.787299 1143.943356 878.298078 1134.488555 C880.079797 1132.717322 881.996684 1130.605737 881.812157 1128.100196 C881.672153 1126.199196 880.340632 1124.629612 879.096878 1123.185147 C869.869481 1112.468710 861.965333 1100.614020 855.620724 1087.975476 M1161.578848 1177.814848 C1162.214689 1177.290617 1162.880993 1176.717567 1163.116108 1175.927736 C1163.548710 1174.474479 1162.371776 1173.079769 1161.289900 1172.017392 C1152.141878 1163.034255 1142.993857 1154.051118 1133.845836 1145.067981 C1131.333979 1142.601399 1127.304175 1140.049416 1124.697572 1142.415651 C1113.201555 1152.851564 1100.236612 1161.666976 1086.304793 1168.520522 C1084.304850 1169.504363 1084.839366 1172.464983 1085.678288 1174.529911 C1091.226880 1188.187238 1096.775469 1201.844565 1102.324059 1215.501893 C1102.661691 1216.332940 1103.170994 1217.295543 1104.065858 1217.357619 C1104.542209 1217.390662 1104.987942 1217.143479 1105.400814 1216.903607 C1125.148237 1205.430637 1143.957373 1192.343212 1161.578848 1177.814848 M890.444757 880.475189 C892.120804 882.116351 894.798306 883.816176 896.545260 882.250706 C908.380461 871.645016 921.626071 862.615182 935.823155 855.474072 C938.064387 854.346736 937.454042 851.023903 936.509098 848.699879 C931.078859 835.344606 925.648623 821.989334 920.218386 808.634062 C919.982637 808.054253 919.715770 807.436431 919.183808 807.106624 C918.271421 806.540962 917.099049 807.081749 916.172071 807.623170 C896.894299 818.882771 878.485260 831.629334 861.162405 845.712296 C860.448071 846.293029 859.698339 846.930522 859.440124 847.814178 C858.975809 849.403147 860.262854 850.921497 861.445657 852.079681 C871.112024 861.544850 880.778390 871.010020 890.444757 880.475189 M948.923817 1180.417040 C943.561211 1193.160467 938.198606 1205.903895 932.836000 1218.647322 C932.326015 1219.859225 931.820939 1221.274064 932.438782 1222.434695 C933.028464 1223.542424 934.391385 1223.939501 935.612917 1224.226982 C956.957028 1229.250214 978.602762 1232.991498 1000.394665 1235.423965 C1001.728054 1235.572801 1003.302383 1235.625315 1004.154089 1234.588651 C1004.755371 1233.856793 1004.773360 1232.822874 1004.762448 1231.875754 C1004.608461 1218.510101 1004.454473 1205.144448 1004.300486 1191.778795 C1004.264389 1188.645696 1003.253911 1184.470993 1000.120616 1184.462098 C987.758175 1184.427001 975.403783 1182.364334 963.700457 1178.381454 C961.092466 1177.493901 958.445297 1176.499077 955.690580 1176.529015 C952.935863 1176.558952 949.992351 1177.877826 948.923816 1180.417038 M809.852604 922.999298 C822.420803 928.322885 834.989003 933.646471 847.557203 938.970057 C849.131366 939.636835 851.454507 940.030690 852.112196 938.452707 C858.902594 922.160611 868.793700 907.167225 881.098953 894.513268 C883.718566 891.819421 880.818764 887.484477 878.042981 884.951848 C868.928592 876.635878 859.814205 868.319906 850.699819 860.003935 C850.029206 859.392067 849.258972 858.741390 848.351683 858.771916 C847.306636 858.807077 846.533929 859.719865 845.906323 860.556209 C832.180781 878.846760 819.548566 897.957666 808.099537 917.752981 C807.532299 918.733732 806.949121 919.875894 807.314325 920.948395 C807.676230 922.011204 808.818784 922.561397 809.852604 922.999298 M1021.138703 839.113019 C1036.663173 839.690612 1052.100942 842.548317 1066.803485 847.566087 C1070.172092 848.715745 1072.916504 844.774060 1074.306805 841.497433 C1079.692705 828.804065 1085.078607 816.110698 1090.464509 803.417331 C1091.297985 801.453015 1088.610482 799.939046 1086.524948 799.487642 C1065.109223 794.852307 1043.521957 791.009560 1021.822185 787.969908 C1021.046227 787.861214 1020.205460 787.764751 1019.522587 788.148952 C1018.413334 788.773046 1018.277388 790.287451 1018.274952 791.560216 C1018.248063 805.610701 1018.221173 819.661185 1018.194283 833.711670 C1018.189918 835.992380 1018.859565 839.028223 1021.138702 839.113020 M1175.757390 1085.115350 C1173.812815 1084.284454 1170.918973 1083.807920 1170.144600 1085.775688 C1163.734687 1102.064010 1153.905244 1116.997479 1141.479183 1129.325879 C1138.690694 1132.092452 1141.737042 1136.658895 1144.658692 1139.284454 C1153.443668 1147.179124 1162.228643 1155.073795 1171.013619 1162.968466 C1171.574312 1163.472336 1172.158420 1163.989914 1172.877034 1164.217634 C1174.947406 1164.873709 1176.859968 1162.940815 1178.167674 1161.206809 C1191.220446 1143.898914 1203.147070 1125.741864 1213.847109 1106.888556 C1214.486718 1105.761575 1215.144074 1104.481945 1214.813630 1103.228952 C1214.423567 1101.749896 1212.851103 1100.965086 1211.444503 1100.364061 C1199.548798 1095.281157 1187.653094 1090.198254 1175.757390 1085.115350 M833.294939 1019.576014 C831.394706 1018.204075 828.896184 1018.080195 826.553592 1018.006972 C814.723497 1017.637192 802.893402 1017.267412 791.063307 1016.897632 C789.796810 1016.858044 788.326230 1016.909872 787.557614 1017.917249 C786.919439 1018.753665 787.032938 1019.921121 787.176881 1020.963301 C788.041454 1027.223020 788.906136 1033.483458 789.920564 1039.720646 C792.707981 1056.859021 796.626361 1073.813366 801.641763 1090.436824 C801.768783 1090.857829 801.906557 1091.296068 802.213988 1091.610497 C802.970251 1092.383977 804.259518 1092.031528 805.262991 1091.627490 C817.626968 1086.649236 829.990945 1081.670985 842.354921 1076.692735 C843.492869 1076.234550 844.665943 1075.753340 845.522864 1074.875533 C848.199363 1072.133801 846.415322 1067.615801 844.745876 1064.167077 C839.668995 1053.679322 836.892158 1042.085582 836.666843 1030.435820 C836.590623 1026.494918 836.490705 1021.883308 833.294939 1019.576014 M1188.560845 1018.900463 C1186.694078 1018.899877 1184.209749 1019.452686 1184.144727 1021.318320 C1183.578395 1037.568203 1180.615399 1053.732570 1175.381231 1069.126819 C1174.532951 1071.621701 1177.450421 1073.652408 1179.876514 1074.681043 C1192.282409 1079.941000 1204.704782 1085.162094 1217.143387 1090.344224 C1217.981378 1090.693345 1218.863320 1091.049294 1219.766439 1090.957159 C1222.012492 1090.728019 1223.023577 1088.080942 1223.536708 1085.882316 C1228.465125 1064.765360 1232.218104 1043.374130 1234.772480 1021.840661 C1234.853171 1021.160432 1234.919271 1020.417426 1234.548954 1019.841155 C1234.010658 1019.003490 1232.842646 1018.914344 1231.846933 1018.914030 C1217.418236 1018.909510 1202.989541 1018.904986 1188.560845 1018.900463 M830.269839 1005.003567 C833.735691 1005.010957 838.344849 1004.003023 838.491228 1000.540256 C839.145309 985.066849 842.066711 969.691132 847.133261 955.056100 C848.130624 952.175157 844.733591 949.830139 841.917616 948.661870 C829.810056 943.638782 817.702495 938.615695 805.594935 933.592607 C804.541001 933.155360 803.406026 932.709375 802.289383 932.944043 C800.186340 933.386008 799.319223 935.859614 798.834821 937.953289 C794.056229 958.607223 790.403296 979.521543 787.897641 1000.572471 C787.807685 1001.328228 787.723065 1002.118721 787.992874 1002.830383 C788.672488 1004.622959 791.040239 1004.919918 792.957316 1004.924008 C805.394824 1004.950525 817.832332 1004.977046 830.269839 1005.003567 M1073.735115 1176.385935 C1072.181575 1175.485278 1070.235647 1176.268844 1068.603315 1177.017285 C1056.706622 1182.472052 1043.814393 1185.746615 1030.756632 1186.630160 C1026.185858 1186.939439 1021.172553 1187.120370 1017.763781 1190.181073 C1017.181948 1204.002975 1016.600114 1217.824878 1016.018280 1231.646780 C1015.957547 1233.089542 1016.020183 1234.793927 1017.212950 1235.607905 C1018.057430 1236.184202 1019.174283 1236.085693 1020.188973 1235.960520 C1043.745558 1233.054547 1067.055590 1228.152585 1089.787355 1221.324392 C1091.529960 1220.800946 1091.229121 1218.256073 1090.556981 1216.565246 C1085.626041 1204.161042 1080.695101 1191.756837 1075.764161 1179.352632 C1075.312724 1178.217006 1074.792356 1176.998865 1073.735116 1176.385934 M946.186102 842.758117 C947.268404 845.422530 949.625849 848.654324 952.245005 847.466682 C967.546090 840.528486 984.251648 836.705110 1001.047347 836.297364 C1003.988221 836.225969 1004.952242 832.357363 1005.046699 829.417140 C1005.453823 816.744186 1005.860947 804.071232 1006.268072 791.398278 C1006.296109 790.525536 1006.296673 789.567421 1005.741335 788.893577 C1004.982633 787.972971 1003.584399 788.016154 1002.398508 788.145801 C978.937769 790.710684 955.723414 795.524401 933.177176 802.499507 C930.998897 803.173399 931.400491 806.358865 932.258604 808.471370 C936.901103 819.900286 941.543603 831.329201 946.186102 842.758117 M1127.314148 889.248684 C1115.420910 877.220079 1101.030343 867.671866 1085.324996 861.388673 C1082.991651 860.455178 1079.611688 859.980158 1078.606582 862.283561 C1073.326942 874.382927 1068.047302 886.482293 1062.767663 898.581658 C1061.983730 900.378198 1061.182326 902.288048 1061.439101 904.231286 C1061.869050 907.485060 1065.003101 909.581589 1067.834044 911.242208 C1074.142295 914.942591 1080.450544 918.642977 1086.758792 922.343363 C1088.003756 923.073652 1089.394051 923.831502 1090.811398 923.558770 C1091.946990 923.340253 1092.846599 922.501190 1093.678853 921.698276 C1104.890617 910.881745 1116.102383 900.065214 1127.314148 889.248684 M939.937706 1163.425491 C940.563926 1163.665640 941.226145 1163.904944 941.889547 1163.806345 C943.230825 1163.606995 943.973587 1162.183814 944.502172 1160.935068 C950.126398 1147.648183 955.750625 1134.361298 961.374852 1121.074413 C961.734046 1120.225840 962.100086 1119.298350 961.864232 1118.407581 C961.595892 1117.394114 960.638157 1116.743100 959.750959 1116.184528 C952.056519 1111.340178 944.362079 1106.495827 936.667640 1101.651477 C935.552636 1100.949480 934.376090 1100.226763 933.061194 1100.142614 C930.825502 1099.999538 928.944370 1101.696425 927.356159 1103.276417 C917.268280 1113.312106 907.180399 1123.347791 897.092519 1133.383477 C895.988880 1134.481406 897.142088 1136.304569 898.279295 1137.367690 C910.318573 1148.622645 924.549587 1157.524303 939.937706 1163.425490 M889.153100 897.922138 C887.935837 897.850124 886.900855 898.750079 886.032457 899.606117 C873.645810 911.816510 864.414602 927.201510 859.469408 943.876873 C872.568559 949.740260 885.742341 955.436919 898.986485 960.965006 C900.995168 961.803428 903.413056 962.608198 905.225399 961.402721 C905.974259 960.904615 906.486688 960.130613 906.978617 959.377682 C912.332461 951.183251 917.686306 942.988821 923.040152 934.794391 C923.464259 934.145265 923.903021 933.451099 923.921554 932.675929 C923.948682 931.541250 923.086293 930.605456 922.281449 929.805169 C912.139178 919.720333 901.996908 909.635496 891.854638 899.550660 C891.091418 898.791762 890.227526 897.985701 889.153101 897.922136 M1161.662370 1084.151435 C1162.137197 1082.754778 1162.560201 1081.132209 1161.783729 1079.877935 C1161.230367 1078.984060 1160.203262 1078.521353 1159.236292 1078.108809 C1147.286878 1073.010757 1135.337463 1067.912705 1123.388049 1062.814653 C1121.685187 1062.088151 1119.728683 1061.360205 1118.047266 1062.135046 C1116.936316 1062.647002 1116.203064 1063.714103 1115.525329 1064.732427 C1110.032267 1072.985975 1104.539205 1081.239523 1099.046143 1089.493071 C1098.665042 1090.065691 1098.268267 1090.692872 1098.308544 1091.379538 C1098.354061 1092.155497 1098.940186 1092.777348 1099.491452 1093.325334 C1110.818906 1104.585343 1122.146357 1115.845353 1133.473809 1127.105364 C1146.291637 1115.471924 1156.090640 1100.540134 1161.662370 1084.151435 M1179.920403 997.696569 C1178.624717 984.336090 1175.397774 971.164424 1170.371003 958.718027 C1169.528268 956.631398 1168.298612 954.285163 1166.080441 953.905773 C1164.891359 953.702396 1163.696050 954.138407 1162.569188 954.569058 C1149.801285 959.448547 1137.136617 964.598165 1124.586516 970.013305 C1122.613012 970.864836 1120.245638 972.569644 1120.999526 974.582472 C1124.216924 983.172699 1126.244476 992.207639 1127.006253 1001.348938 C1127.395037 1006.014336 1133.626147 1007.191581 1138.306288 1007.075922 C1150.473521 1006.775236 1162.640755 1006.474550 1174.807988 1006.173864 C1175.477961 1006.157307 1176.158225 1006.139115 1176.797714 1005.938637 C1179.844173 1004.983582 1180.228579 1000.874316 1179.920406 997.696570 M842.911055 1025.649511 C843.965285 1040.923161 847.963565 1055.988251 854.621861 1069.774580 C855.271494 1071.119677 857.262666 1070.754716 858.642372 1070.182247 C871.718009 1064.756889 884.793645 1059.331531 897.869282 1053.906173 C898.717731 1053.554134 899.611354 1053.167035 900.143102 1052.418008 C900.919879 1051.323829 900.685228 1049.835447 900.417451 1048.520568 C898.725638 1040.213200 897.033826 1031.905832 895.342014 1023.598464 C895.004008 1021.938738 894.625087 1020.194774 893.497370 1018.930973 C891.657859 1016.869484 888.524140 1016.767284 885.761725 1016.818274 C872.864673 1017.056333 859.967621 1017.294392 847.070568 1017.532451 C843.649849 1017.595592 842.675467 1022.236330 842.911054 1025.649511 M1005.294291 844.835873 C1004.798766 844.153145 1003.834069 844.059857 1002.990737 844.038534 C985.262230 843.590327 967.435128 847.965249 951.928224 856.569711 C957.307219 869.880288 962.686215 883.190865 968.065210 896.501442 C969.002091 898.819800 970.734036 901.599136 973.183235 901.095199 C981.681502 899.346629 990.179767 897.598059 998.678033 895.849489 C1002.271828 895.110044 1006.741962 893.342738 1006.657617 889.674629 C1006.326371 875.269194 1005.995125 860.863759 1005.663879 846.458324 C1005.650919 845.894688 1005.625454 845.292146 1005.294292 844.835873 M1022.128390 1180.162691 C1035.864554 1179.575266 1049.504905 1176.800507 1062.378911 1171.974818 C1065.329445 1170.868841 1068.652931 1169.163278 1069.155681 1166.052638 C1069.425645 1164.382304 1068.777403 1162.715147 1068.141666 1161.147112 C1063.513132 1149.730925 1058.884598 1138.314738 1054.256064 1126.898552 C1053.677421 1125.471340 1052.976208 1123.912937 1051.567711 1123.290125 C1050.477948 1122.808252 1049.222205 1123.011510 1048.049667 1123.223498 C1040.133016 1124.654783 1032.216364 1126.086068 1024.299713 1127.517352 C1022.313936 1127.876369 1020.229635 1128.280126 1018.684181 1129.577730 C1016.010720 1131.822441 1015.887191 1135.820649 1015.979540 1139.310290 C1016.290987 1151.078803 1016.602431 1162.847317 1016.913875 1174.615830 C1016.961998 1176.434244 1017.157960 1178.537494 1018.665196 1179.555916 C1019.653906 1180.223972 1020.936229 1180.213674 1022.128389 1180.162692 M974.436152 1123.512892 C973.047402 1124.084872 972.341632 1125.601207 971.762339 1126.986924 C966.382699 1139.855486 961.003058 1152.724047 955.623417 1165.592609 C955.218411 1166.561418 954.811271 1167.661658 955.221771 1168.628151 C955.643040 1169.619990 956.761615 1170.086735 957.781269 1170.435327 C966.124541 1173.287649 974.886578 1174.669000 983.597048 1176.037812 C989.768505 1177.007631 995.939963 1177.977449 1002.111421 1178.947267 C1002.970757 1179.082308 1004.049345 1179.121350 1004.490662 1178.371727 C1004.688761 1178.035236 1004.692684 1177.623174 1004.691066 1177.232704 C1004.632508 1163.096985 1004.573951 1148.961265 1004.515393 1134.825546 C1004.509141 1133.316259 1004.464566 1131.688149 1003.550313 1130.487262 C1002.562860 1129.190226 1000.839121 1128.749033 999.248899 1128.390481 C992.131449 1126.785689 985.013998 1125.180897 977.896547 1123.576106 C976.752177 1123.318081 975.520852 1123.066140 974.436152 1123.512891 M1067.617044 856.243545 C1068.303043 854.581464 1066.089875 853.276422 1064.345545 852.840050 C1049.147216 849.037948 1033.661436 846.385446 1018.064125 844.912677 C1018.091996 859.498776 1018.119867 874.084875 1018.147738 888.670974 C1018.150286 890.004266 1018.163787 891.388315 1018.736864 892.592166 C1019.952915 895.146702 1023.124961 895.963898 1025.904437 896.492054 C1032.718823 897.786921 1039.533209 899.081789 1046.347595 900.376657 C1048.668291 900.817635 1050.296219 898.209517 1051.197447 896.025969 C1056.670645 882.765160 1062.143844 869.504352 1067.617044 856.243545 M1161.183033 936.293076 C1154.020234 923.906783 1145.711173 912.183675 1136.396683 901.322449 C1135.900517 900.743891 1135.300392 900.119403 1134.538240 900.125179 C1133.859029 900.130327 1133.302424 900.638833 1132.818627 901.115588 C1122.730597 911.056763 1112.642567 920.997939 1102.554537 930.939114 C1101.462365 932.015387 1100.299054 933.243473 1100.225342 934.775064 C1100.161752 936.096327 1100.933139 937.295885 1101.673798 938.391880 C1105.975476 944.757321 1110.277155 951.122762 1114.578833 957.488203 C1115.111120 958.275859 1115.712409 959.116274 1116.621549 959.394114 C1117.535782 959.673511 1118.509160 959.307164 1119.394388 958.946253 C1132.111505 953.761432 1144.828622 948.576614 1157.545740 943.391795 C1159.698955 942.513921 1162.234220 941.073982 1162.120347 938.751477 C1162.076964 937.866694 1161.626493 937.059929 1161.183034 936.293076 M1179.769941 1019.029325 C1164.653852 1018.970526 1149.537762 1018.911727 1134.421673 1018.852928 C1132.679754 1018.846153 1130.766735 1018.900328 1129.460652 1020.052922 C1128.295308 1021.081317 1127.924922 1022.717867 1127.617461 1024.241379 C1126.072394 1031.897404 1124.527328 1039.553429 1122.982261 1047.209455 C1122.832556 1047.951260 1122.685141 1048.735452 1122.932053 1049.450799 C1123.326219 1050.592767 1124.563320 1051.173799 1125.680701 1051.633057 C1139.313164 1057.236165 1152.945626 1062.839275 1166.578088 1068.442385 C1168.090714 1069.064093 1169.296884 1067.082659 1169.743391 1065.509386 C1172.151667 1057.023774 1174.571188 1048.479287 1175.382671 1039.695957 C1176.038562 1032.596720 1175.779122 1024.937177 1179.769941 1019.029325 M935.966491 862.600129 C923.496355 869.302407 911.766923 877.381662 901.060008 886.643779 C900.366862 887.243392 899.619248 887.975466 899.648356 888.891511 C899.672738 889.658808 900.241208 890.285062 900.776043 890.835780 C910.304023 900.646703 919.832004 910.457627 929.359984 920.268550 C930.223182 921.157381 931.137988 922.078783 932.320847 922.447530 C934.455296 923.112928 936.653884 921.798386 938.503999 920.543116 C944.666621 916.361884 950.829244 912.180652 956.991866 907.999421 C957.565841 907.609989 958.164668 907.192592 958.468574 906.569098 C958.955086 905.570970 958.544993 904.388277 958.132401 903.357394 C952.953718 890.418232 947.775038 877.479069 942.596359 864.539907 C942.190173 863.525032 941.725204 862.439159 940.786057 861.879731 C939.322832 861.008123 937.466690 861.793822 935.966491 862.600127 M861.810108 1088.405248 C868.251308 1099.424361 875.564678 1109.933495 883.659291 1119.801988 C885.018246 1121.458751 886.858477 1123.268954 888.953249 1122.817787 C890.060229 1122.579366 890.925914 1121.743539 891.727501 1120.943723 C901.324744 1111.367665 910.921988 1101.791610 920.519233 1092.215555 C921.252918 1091.483490 922.026068 1090.675393 922.170911 1089.649121 C922.331178 1088.513564 921.680697 1087.438507 921.057109 1086.476055 C917.069302 1080.321232 913.081495 1074.166410 909.093688 1068.011588 C908.399097 1066.939549 907.648490 1065.816779 906.498228 1065.261243 C904.734289 1064.409325 902.650773 1065.146153 900.836983 1065.886025 C888.347749 1070.980565 875.858515 1076.075105 863.369281 1081.169646 C862.502289 1081.523304 861.593231 1081.908297 861.024823 1082.652382 C859.774277 1084.289434 860.770497 1086.626761 861.810107 1088.405248 M1082.597726 1104.038886 C1076.872155 1108.034209 1071.146584 1112.029531 1065.421013 1116.024853 C1064.936089 1116.363235 1064.433392 1116.721256 1064.156709 1117.243845 C1063.650812 1118.199366 1064.047580 1119.362721 1064.449499 1120.366420 C1069.656736 1133.370220 1074.863971 1146.374020 1080.071205 1159.377820 C1080.763880 1161.107606 1082.316797 1163.209928 1083.992828 1162.395757 C1098.461833 1155.367109 1111.814091 1146.045530 1123.398779 1134.885377 C1113.898293 1124.953409 1104.397806 1115.021441 1094.897320 1105.089473 C1093.352731 1103.474734 1091.633142 1101.766943 1089.419796 1101.459965 C1086.951068 1101.117567 1084.641653 1102.612628 1082.597726 1104.038886 M894.170351 1000.941953 C895.943136 993.117065 897.715921 985.292176 899.488707 977.467288 C899.711480 976.483990 899.925310 975.410301 899.484697 974.503458 C899.014889 973.536530 897.943108 973.044942 896.952405 972.627595 C883.190106 966.830060 869.427807 961.032523 855.665508 955.234986 C854.401003 954.702298 853.363370 956.344262 852.975518 957.660431 C850.971787 964.460052 849.364427 971.376454 848.164313 978.362834 C847.077820 984.687778 846.325588 991.064713 845.573861 997.438118 C845.335708 999.457267 845.097554 1001.476417 844.859401 1003.495567 C844.818467 1003.842618 844.782996 1004.218029 844.959316 1004.519743 C845.244839 1005.008322 845.916867 1005.062819 846.482753 1005.060215 C860.701479 1004.994729 874.920203 1004.929247 889.138928 1004.863765 C890.413779 1004.857893 891.808563 1004.809153 892.770400 1003.972404 C893.624989 1003.228956 893.920070 1002.046668 894.170351 1000.941953 M913.176572 964.968465 C913.002841 965.268503 912.824349 965.584421 912.812427 965.930923 C912.783177 966.781100 913.699424 967.310208 914.482359 967.642876 C928.179129 973.462595 941.875898 979.282315 955.572666 985.102035 C956.643096 985.556858 957.796746 986.021269 958.936350 985.788927 C962.787692 985.003717 962.131977 977.940673 965.938139 976.959593 C967.814416 976.475963 966.697702 973.610503 965.275669 972.294399 C954.147021 961.994743 943.018373 951.695088 931.889725 941.395433 C931.413406 940.954595 930.916678 940.501462 930.300058 940.298981 C928.342713 939.656245 926.637200 941.721509 925.604872 943.504374 C921.462105 950.659071 917.319339 957.813768 913.176572 964.968465 M1097.113724 1079.879634 C1101.203325 1072.895931 1105.292925 1065.912229 1109.382526 1058.928527 C1110.335486 1059.567368 1110.045650 1057.382743 1108.994425 1056.923203 C1095.184384 1050.886172 1081.374341 1044.849143 1067.564298 1038.812114 C1066.431556 1038.316938 1065.218797 1037.810586 1063.998726 1038.009903 C1062.123184 1038.316302 1060.932946 1040.129013 1059.978121 1041.772133 C1058.681742 1044.003022 1057.385363 1046.233910 1056.088984 1048.464798 C1055.585286 1049.331593 1055.144681 1050.588962 1055.940094 1051.199177 C1067.881716 1060.360396 1078.988367 1070.609549 1089.077530 1081.778214 C1089.818315 1082.598260 1090.619196 1083.464173 1091.690737 1083.734431 C1094.007581 1084.318773 1095.906302 1081.941516 1097.113724 1079.879634 M1059.820067 913.839690 C1059.208404 913.451237 1058.505700 913.046016 1057.801896 913.218320 C1057.000060 913.414626 1056.566780 914.260824 1056.235802 915.017084 C1050.216922 928.769872 1044.198039 942.522657 1038.179156 956.275443 C1037.806033 957.128006 1037.424492 958.045150 1037.592626 958.960473 C1037.752387 959.830220 1038.378441 960.529163 1038.978799 961.178436 C1040.782703 963.129317 1042.667570 965.137772 1045.123994 966.150682 C1047.580418 967.163591 1050.783053 966.885101 1052.415633 964.788750 C1062.242705 952.170080 1073.344254 940.544492 1085.496572 930.146255 C1076.937737 924.710734 1068.378902 919.275212 1059.820067 913.839690 M938.298216 1093.973893 C946.002997 1099.152507 953.707779 1104.331122 961.412560 1109.509736 C962.503788 1110.243183 963.906615 1110.996873 965.050770 1110.349085 C965.716439 1109.972198 966.063795 1109.223854 966.369833 1108.522785 C972.178896 1095.215434 977.987960 1081.908084 983.797023 1068.600735 C984.293912 1067.462467 984.800371 1066.277664 984.767071 1065.036116 C984.692919 1062.271463 982.097381 1060.342613 979.765606 1058.855458 C978.175821 1057.841526 976.416806 1056.785805 974.543928 1057.004435 C972.614513 1057.229662 971.121975 1058.739824 969.797884 1060.161145 C959.297995 1071.432063 948.798105 1082.702978 938.298216 1093.973893 M1016.784416 1120.547218 C1017.253884 1122.416983 1019.976854 1122.148654 1021.790439 1121.494951 C1029.383554 1118.758016 1037.296229 1116.908802 1045.315880 1115.996988 C1048.270487 1115.661057 1048.040879 1111.279377 1046.938591 1108.517581 C1042.346759 1097.012706 1037.754928 1085.507831 1033.163098 1074.002956 C1032.435766 1072.180618 1031.645411 1070.271723 1030.103649 1069.058093 C1027.312774 1066.861199 1023.285236 1067.744003 1019.873717 1068.732367 C1018.705465 1069.070825 1017.423718 1069.495408 1016.821837 1070.552340 C1016.510737 1071.098647 1016.430007 1071.741825 1016.355326 1072.366051 C1015.795720 1077.043492 1015.258370 1081.929565 1016.892199 1086.347959 C1017.606781 1088.280416 1017.594113 1090.394526 1017.572574 1092.454757 C1017.520183 1097.466084 1017.467791 1102.477411 1017.415400 1107.488738 C1017.369816 1111.848901 1017.323509 1116.220270 1016.784416 1120.547218 M976.682415 908.134373 C974.251109 908.585279 974.509175 912.149955 975.400933 914.456323 C979.730539 925.654031 984.060143 936.851738 988.389746 948.049446 C989.180412 950.094356 990.003532 952.192360 991.492113 953.801998 C995.361405 957.985960 1003.405791 956.716411 1005.798509 951.544191 C1007.308775 948.279526 1006.674265 944.480834 1006.155956 940.921298 C1004.251758 927.844046 1004.347161 914.477508 1006.437830 901.428769 C996.609766 904.042552 986.681604 906.279937 976.682415 908.134373 M1115.136739 977.665996 C1114.963853 976.906401 1114.764403 976.098999 1114.195384 975.566936 C1113.113383 974.555207 1111.375084 975.046388 1109.999351 975.595640 C1097.410534 980.621643 1084.821716 985.647646 1072.232899 990.673649 C1070.653615 991.304168 1069.008240 991.981138 1067.910033 993.279457 C1065.551406 996.067868 1066.677765 1000.275071 1067.922607 1003.708543 C1068.247874 1004.605681 1068.606270 1005.550139 1069.353850 1006.143248 C1069.982742 1006.642193 1070.802584 1006.821420 1071.596726 1006.938846 C1075.738830 1007.551317 1079.946686 1006.873534 1084.104514 1006.378946 C1096.065452 1004.956148 1108.206606 1005.055311 1120.142710 1006.673286 C1121.290247 1005.248804 1120.943797 1003.179881 1120.537846 1001.396290 C1118.737476 993.486192 1116.937108 985.576094 1115.136739 977.665996 M955.741382 1028.983959 C957.715382 1022.684986 951.384172 1015.419925 944.874459 1016.514168 C931.509031 1018.760816 917.818940 1019.066622 904.366524 1017.419027 C901.951760 1017.123276 901.477189 1020.760938 902.036628 1023.128549 C903.735845 1030.319801 905.435060 1037.511053 907.134275 1044.702304 C907.505676 1046.274109 908.143254 1048.125571 909.716516 1048.490752 C910.560498 1048.686655 911.429735 1048.370042 912.238224 1048.058547 C924.809193 1043.215205 937.380161 1038.371862 949.951129 1033.528520 C952.324888 1032.613958 954.980660 1031.411397 955.741383 1028.983960 M1004.899065 1078.523612 C1004.921386 1075.642795 1004.858564 1072.505377 1003.043891 1070.267841 C1001.229218 1068.030305 996.972334 1067.752451 995.869949 1070.414095 C989.894407 1084.841691 983.918866 1099.269287 977.943324 1113.696883 C977.495709 1114.777624 977.072211 1116.100350 977.771648 1117.037979 C978.246571 1117.674632 979.085650 1117.895409 979.859359 1118.075000 C984.889700 1119.242624 989.920041 1120.410249 994.950381 1121.577874 C996.878839 1122.025502 998.886273 1122.474302 1000.818412 1122.042839 C1002.750551 1121.611376 1004.577536 1120.022541 1004.592875 1118.042873 C1004.694938 1104.869785 1004.797001 1091.696698 1004.899065 1078.523612 M1067.330549 1023.693324 C1067.313948 1026.447492 1070.301404 1028.098800 1072.852698 1029.136401 C1085.669920 1034.349103 1098.487139 1039.561807 1111.304358 1044.774511 C1112.598258 1045.300735 1114.122180 1045.815293 1115.326259 1045.107279 C1116.168926 1044.611779 1116.599029 1043.648106 1116.958421 1042.739016 C1119.656939 1035.913051 1121.299903 1028.670953 1121.811077 1021.348761 C1121.853370 1020.742939 1121.871440 1020.078522 1121.504128 1019.594898 C1121.024807 1018.963797 1120.112931 1018.908477 1119.320443 1018.909094 C1104.817093 1018.920384 1090.313743 1018.931674 1075.810393 1018.942964 C1072.192284 1018.945780 1067.352357 1020.075280 1067.330551 1023.693324 M1020.503290 901.416716 C1019.945062 901.393195 1019.343654 901.388083 1018.882910 901.704131 C1018.174100 902.190339 1018.105404 903.191764 1018.107097 904.051303 C1018.135032 918.235559 1018.162966 932.419814 1018.190901 946.604069 C1018.195693 949.037010 1018.246596 951.629494 1019.597671 953.652813 C1020.948746 955.676132 1024.117987 956.661861 1025.850492 954.953748 C1026.458277 954.354522 1026.791193 953.538002 1027.108399 952.745629 C1031.611539 941.496879 1036.114680 930.248131 1040.617822 918.999382 C1042.237991 914.952234 1043.974870 910.738601 1047.293171 907.911370 C1038.901272 904.026342 1029.742655 901.806024 1020.503290 901.416716 M905.935144 980.523026 C903.099681 987.457361 901.316575 994.820903 900.665598 1002.284219 C900.614569 1002.869254 900.580037 1003.498475 900.882711 1004.001723 C901.388110 1004.842034 902.547282 1004.936845 903.527868 1004.936453 C918.174071 1004.930597 932.820274 1004.924743 947.466476 1004.918888 C950.472194 1004.917686 954.299347 1004.311730 955.007170 1001.390543 C955.759822 998.284356 952.215718 995.998101 949.261404 994.778707 C936.320587 989.437378 923.379772 984.096050 910.438957 978.754722 C909.508660 978.370741 908.445833 977.986520 907.529756 978.403288 C906.704303 978.778828 906.278376 979.683625 905.935143 980.523026 M956.466477 915.820939 C951.586674 919.009351 946.706871 922.197762 941.827068 925.386174 C940.181230 926.461547 938.364911 928.658273 939.742410 930.061022 C949.805986 940.309039 959.869560 950.557057 969.933134 960.805075 C971.548327 962.449870 973.276481 964.162244 975.505329 964.750836 C977.734176 965.339427 980.567512 964.293100 981.070810 962.043458 C981.356980 960.764334 980.849354 959.455794 980.351311 958.243356 C974.534841 944.083723 968.718372 929.924090 962.901902 915.764456 C961.963969 913.481149 958.532921 914.470747 956.466477 915.820939 M1067.986078 1107.022917 C1072.162639 1104.251279 1076.339200 1101.479640 1080.515762 1098.708001 C1081.950101 1097.756148 1083.578189 1096.353087 1083.181943 1094.677873 C1083.003507 1093.923503 1082.435185 1093.332492 1081.889806 1092.781607 C1070.876095 1081.656706 1059.862385 1070.531804 1048.848675 1059.406903 C1046.746164 1057.283166 1042.771875 1059.367690 1042.058226 1062.269675 C1041.344578 1065.171661 1042.709621 1068.134195 1044.001695 1070.828886 C1049.629750 1082.566501 1054.549151 1094.643857 1058.724202 1106.973315 C1059.300605 1108.675508 1061.356710 1109.497299 1063.139065 1109.267281 C1064.921421 1109.037263 1066.488666 1108.016628 1067.986078 1107.022920 M1094.521499 939.997966 C1093.665220 940.176274 1092.994070 940.820403 1092.373282 941.436545 C1086.501272 947.264598 1080.629262 953.092651 1074.757252 958.920704 C1070.579330 963.067350 1066.401409 967.213997 1062.223488 971.360643 C1060.455010 973.115882 1058.582398 975.080898 1058.335058 977.560253 C1058.087719 980.039607 1060.537028 982.801091 1062.833021 981.833211 C1078.647776 975.166463 1094.462530 968.499717 1110.277283 961.832971 C1106.443868 955.563706 1102.610452 949.294442 1098.777036 943.025177 C1097.805418 941.436168 1096.344911 939.618272 1094.521501 939.997965 M925.152098 1082.285781 C925.616148 1082.983681 926.153580 1083.735193 926.967158 1083.936430 C928.085890 1084.213147 929.130950 1083.337858 929.952534 1082.529692 C940.228227 1072.421829 950.503920 1062.313966 960.779613 1052.206104 C962.289728 1050.720653 963.867926 1049.116914 964.337806 1047.051430 C964.807686 1044.985946 963.609461 1042.399037 961.498788 1042.219961 C960.634410 1042.146625 959.792394 1042.476131 958.987496 1042.799651 C944.388065 1048.667728 929.788634 1054.535805 915.189203 1060.403881 C913.883396 1060.928736 912.332442 1061.834742 912.484053 1063.233891 C916.706737 1069.584523 920.929417 1075.935152 925.152098 1082.285781 M1029.391426 977.321380 C1029.111807 978.945476 1029.066542 980.727136 1029.947993 982.119588 C1030.829444 983.512039 1032.924430 984.213596 1034.188219 983.155903 C1035.477585 982.076802 1036.766950 980.997703 1038.056315 979.918603 C1040.320789 978.023412 1042.814673 975.554063 1042.334167 972.640524 C1041.799630 969.399361 1037.466588 967.912920 1034.506688 969.337654 C1031.546789 970.762388 1029.948792 974.084063 1029.391427 977.321379 M1041.720820 1029.987388 C1039.992240 1030.701219 1039.460717 1033.045067 1040.113153 1034.797742 C1040.765589 1036.550418 1042.249756 1037.837889 1043.677012 1039.046394 C1044.724109 1039.933002 1045.771202 1040.819610 1046.818296 1041.706218 C1047.470299 1042.258290 1048.162618 1042.830215 1049.001899 1042.989901 C1050.814497 1043.334775 1052.400108 1041.609184 1052.973488 1039.855420 C1053.546867 1038.101656 1053.535887 1036.171626 1054.309819 1034.496669 C1051.485890 1032.637469 1048.399072 1031.178207 1045.170040 1030.175932 C1044.046960 1029.827331 1042.807727 1029.538540 1041.720820 1029.987387 M981.016581 1052.621056 C982.603205 1055.772978 987.579050 1055.653487 990.072024 1053.156075 C992.564997 1050.658662 993.125944 1046.847448 993.200075 1043.319489 C993.230836 1041.855704 991.588768 1040.812742 990.128216 1040.914716 C988.667663 1041.016689 987.395668 1041.902984 986.207084 1042.757898 C982.907208 1045.131403 979.188923 1048.990302 981.016583 1052.621055 M970.696527 982.233313 C967.757994 984.053363 968.118073 988.846502 970.655041 991.194129 C973.192008 993.541757 976.959011 993.956692 980.409275 993.748757 C982.667664 993.612655 982.360344 990.149542 981.259371 988.173004 C979.049579 984.205842 974.557100 979.842179 970.696528 982.233316 M995.936145 965.170015 C995.520413 965.980099 995.967340 966.947229 996.407669 967.744211 C997.602632 969.907048 998.797591 972.069885 999.992550 974.232722 C1001.306094 976.610192 1004.202911 979.324909 1006.219813 977.505604 C1008.697034 975.271078 1004.539984 970.601603 1006.644484 968.013010 C1008.117243 966.201477 1006.400913 963.264323 1004.136884 962.694370 C1001.872856 962.124417 999.537853 963.102734 997.408301 964.059644 C996.836171 964.316729 996.222531 964.611975 995.936147 965.170016 M962.132713 1018.598329 C960.915183 1020.594577 962.425785 1023.069968 962.800261 1025.378031 C962.944958 1026.269859 963.029796 1027.369054 963.851425 1027.744845 C964.421920 1028.005774 965.086023 1027.767154 965.660931 1027.516100 C970.616066 1025.352249 975.152644 1022.234619 978.948849 1018.384368 C974.999876 1017.002325 970.773775 1016.417398 966.597876 1016.674892 C964.913378 1016.778761 963.011502 1017.157478 962.132713 1018.598329 M1045.413799 1006.079843 C1046.366265 1007.611457 1048.550551 1007.625633 1050.346506 1007.459567 C1053.037884 1007.210702 1055.729260 1006.961838 1058.420636 1006.712975 C1059.112157 1006.649032 1059.888972 1006.539224 1060.301452 1005.980522 C1060.559918 1005.630431 1060.615277 1005.175248 1060.662164 1004.742617 C1060.879082 1002.741078 1061.064366 1000.580228 1060.045756 998.843667 C1059.027146 997.107107 1056.282263 996.293859 1054.991777 997.839128 C1053.465806 999.666372 1050.806889 999.896798 1048.573385 1000.720733 C1046.339882 1001.544668 1044.156620 1004.058234 1045.413801 1006.079843 M1016.230354 1049.228589 C1016.234281 1052.325569 1016.238208 1055.422549 1016.242135 1058.519529 C1016.243692 1059.747595 1016.437008 1061.268243 1017.589251 1061.693078 C1018.249627 1061.936560 1018.979813 1061.698484 1019.642447 1061.461216 C1022.147874 1060.564102 1024.653300 1059.666988 1027.158727 1058.769874 C1025.643346 1055.718372 1024.127965 1052.666870 1022.612584 1049.615367 C1021.457311 1047.289008 1018.457331 1044.664599 1016.816932 1046.678474 C1016.254436 1047.369039 1016.229225 1048.337928 1016.230354 1049.228589 M1048.819808 988.571476 C1052.122687 989.210524 1054.476450 983.903835 1051.785804 981.884476 C1049.190162 984.775541 1046.212305 987.323036 1042.954202 989.439728 C1044.511605 990.756875 1047.197815 990.356908 1048.303930 988.643177 M971.493204 1042.109601 C973.748038 1039.542457 976.002872 1036.975313 978.257705 1034.408170 C975.773168 1034.370333 973.055023 1034.410453 971.143771 1035.998367 C969.232518 1037.586281 969.136786 1041.321146 971.493203 1042.109599 M1037.888554 1047.609493 C1036.564717 1047.120585 1035.240879 1046.631676 1033.917041 1046.142767 C1033.992386 1048.512596 1034.175172 1051.137684 1035.879040 1052.786497 C1037.582909 1054.435311 1041.267354 1053.793877 1041.337692 1051.423896 C1040.143264 1050.256570 1038.948836 1049.089244 1037.754409 1047.921917 M983.752573 969.932206 C982.476364 969.571137 981.596961 971.174653 981.245278 972.453481 C983.929337 974.073136 986.201930 976.368669 987.794547 979.068861 C989.702035 975.610601 987.665922 970.631125 983.881885 969.500135 M1018.996266 966.473698 C1018.709278 968.613145 1018.422290 970.752591 1018.135302 972.892038 C1017.998923 973.908725 1019.684330 973.796354 1020.516702 973.196849 C1019.296884 971.606173 1020.890282 969.471443 1022.092107 967.867130 C1023.293932 966.262817 1023.562534 963.171112 1021.567414 962.976946 C1019.966095 962.821102 1019.210167 964.879092 1018.996264 966.473695 M1003.380827 1057.505230 C1004.511162 1055.910689 1004.665204 1053.678386 1003.764604 1051.943699 C1000.436864 1053.562508 999.042845 1058.228160 1000.937068 1061.407204 C1002.465097 1060.802539 1003.474964 1059.095931 1003.269525 1057.465503 M966.252735 1000.071856 C964.024419 1000.341343 961.232848 1002.647126 962.859914 1004.193306 C964.740383 1005.980297 969.283313 1002.500255 969.853213 1005.031012 C970.241995 1002.927188 968.396422 1000.705018 966.256979 1000.700952 M1053.294710 1021.058668 C1054.423629 1022.358885 1055.745780 1023.758370 1057.465098 1023.853083 C1059.184415 1023.947796 1060.843089 1021.716643 1059.636416 1020.488244 C1059.101536 1019.943730 1058.271704 1019.848244 1057.511145 1019.783893 C1055.575645 1019.620134 1053.640146 1019.456373 1051.704647 1019.292612 C1050.930053 1019.827745 1051.977595 1021.301303 1052.737530 1020.745551 M994.667495 1036.990534 C997.120533 1037.460908 998.799497 1034.056212 997.816983 1031.759843 C995.663115 1032.336253 994.179059 1034.740971 994.629552 1036.924647 M1031.310540 1026.380745 C1032.411687 1027.948495 1034.411711 1028.834099 1036.312635 1028.595655 C1036.657734 1026.001426 1032.393622 1024.084131 1031.276926 1026.451010 M1015.229077 1039.618000 C1016.076891 1039.746802 1016.924704 1039.875604 1017.772518 1040.004406 C1018.815051 1038.400623 1018.332694 1036.000968 1016.751421 1034.924599 C1015.413255 1035.916910 1014.825369 1037.810924 1015.366469 1039.386546 M1025.185929 988.376449 C1023.952528 989.247730 1024.423556 991.569800 1025.898972 991.891602 C1026.679140 990.746125 1027.459306 989.600645 1028.239471 988.455164 C1027.798408 987.281407 1025.778461 987.272079 1025.326576 988.441712 M988.185773 995.306669 C987.191752 996.000365 987.177445 997.706622 988.159696 998.416888 C989.141946 999.127154 990.757815 998.578988 991.105152 997.417674 C990.528318 996.332315 989.451515 995.526034 988.247667 995.278065 M1004.265436 986.407468 C1003.996259 987.158970 1004.916689 988.016731 1005.647376 987.695318 C1007.027856 986.999986 1007.105174 984.682916 1005.774119 983.897102 C1004.976479 984.505217 1004.426697 985.429236 1004.272797 986.420371 M1036.781655 1004.919868 C1035.444532 1004.404379 1035.017709 1006.758467 1035.698686 1008.019378 C1036.604849 1007.819972 1037.622447 1007.539108 1038.053624 1006.717541 C1038.484801 1005.895974 1037.584471 1004.601111 1036.797640 1005.092824 M987.301671 1016.330285 C985.961204 1015.613462 984.060384 1016.926403 984.256255 1018.433825 C984.992744 1018.897938 985.906381 1019.072707 986.762167 1018.913179 C987.240182 1018.190400 987.409997 1017.270789 987.221643 1016.424959 z"/></svg>